<svg id="Capa_1" data-name="Capa 1" xmlns="http://www.w3.org/2000/svg" viewBox="0 0 635.81 272.68"><path d="M544.56,470.83h-246c-25.55,0-38.29,12.53-38.29,12.53-33.14,25.34-1.73,112.1-1.73,112.1,12.43-49.16,50.37-47.78,50.37-47.78H516.2C517.18,542,529.52,488,544.56,470.83Z" transform="translate(-245.03 -449.74)" fill="#ea602c"/><path d="M355.62,631.47l-2-43.52-9.3,43.52H324.9l-10.76-40.71-.49,39.64-19.38.1V557l14,.87,14.82.48,10.86,39,7.36-39.54h30.34l3.39,73Z" transform="translate(-245.03 -449.74)" fill="#fff"/><path d="M414,631.27l-.1-4.55a19.88,19.88,0,0,1-6.49,3.58,23.71,23.71,0,0,1-7.94,1.36,21.23,21.23,0,0,1-11.83-3.54,25.43,25.43,0,0,1-8.63-9.54,27.64,27.64,0,0,1-3.19-13.18,27.13,27.13,0,0,1,3.29-13.28,24.52,24.52,0,0,1,21.81-12.89,20,20,0,0,1,7.12,1.26,13.62,13.62,0,0,1,5.38,3.49v-4.17h16.09l2.23,51.46Zm-6.39-17.15a11.11,11.11,0,0,0,3.68-4.12,11.59,11.59,0,0,0,1.35-5.47,9.18,9.18,0,0,0-2.56-6.64,8.58,8.58,0,0,0-6.45-2.67,10.53,10.53,0,0,0-7.46,3,9.5,9.5,0,0,0-3.2,7.17,9.7,9.7,0,0,0,1.41,4.94,11.05,11.05,0,0,0,3.68,3.88,8.35,8.35,0,0,0,9.55-.1Z" transform="translate(-245.03 -449.74)" fill="#fff"/><path d="M478.9,631.27H434l-.48-13.76,19.19-23.26H435V579.33h41.29L478,594.25l-17.83,21.91,17.54-.88Z" transform="translate(-245.03 -449.74)" fill="#fff"/><path d="M526.09,631.27H481.22l-.48-13.76,19.19-23.26H482.19V579.33h41.29l1.74,14.92-17.83,21.91,17.54-.88Z" transform="translate(-245.03 -449.74)" fill="#fff"/><path d="M563.12,631.27l-.1-4.55a20.09,20.09,0,0,1-6.49,3.58,23.81,23.81,0,0,1-7.95,1.36,21.17,21.17,0,0,1-11.82-3.54,25.35,25.35,0,0,1-8.63-9.54,27.65,27.65,0,0,1-3.2-13.18,27.13,27.13,0,0,1,3.3-13.28A24.52,24.52,0,0,1,550,579.23a20.07,20.07,0,0,1,7.13,1.26,13.51,13.51,0,0,1,5.37,3.49v-4.17h16.09l2.23,51.46Zm-6.4-17.15A11,11,0,0,0,560.4,610a11.49,11.49,0,0,0,1.36-5.47,9.19,9.19,0,0,0-2.57-6.64,8.56,8.56,0,0,0-6.44-2.67,10.55,10.55,0,0,0-7.47,3,9.49,9.49,0,0,0-3.19,7.17,9.68,9.68,0,0,0,1.4,4.94,11.14,11.14,0,0,0,3.68,3.88,8.35,8.35,0,0,0,9.55-.1Z" transform="translate(-245.03 -449.74)" fill="#fff"/><path d="M620.88,580.83a18.23,18.23,0,0,1,5.81,4.8l-6.68,15a9,9,0,0,0-7.66-3.88c-3.49,0-6.09,1.25-7.8,3.73s-2.7,6.54-3,12.17v18.6h-18V579.62h18v4.46a19.53,19.53,0,0,1,6-3.64,18.16,18.16,0,0,1,6.64-1.31A14.51,14.51,0,0,1,620.88,580.83Z" transform="translate(-245.03 -449.74)" fill="#fff"/><path d="M668.56,586.3q6.69,7.08,6.69,19.29c0,1.36,0,2.39-.1,3.1l-34.31.39a14.27,14.27,0,0,0,3.25,5.28,7.47,7.47,0,0,0,4.89,2.28q7.75.58,11.25-4.56l13.86,4a18.76,18.76,0,0,1-4.85,8.19,25.39,25.39,0,0,1-8.58,5.67,27.23,27.23,0,0,1-10.32,2,15.77,15.77,0,0,1-1.94-.09A24.74,24.74,0,0,1,636,627.49a28,28,0,0,1-9-10.17,28.89,28.89,0,0,1-3.34-13.76,20.67,20.67,0,0,1,.09-2.23,21.8,21.8,0,0,1,3.93-11.44A24,24,0,0,1,637,582a28.79,28.79,0,0,1,12.75-2.81Q661.88,579.23,668.56,586.3Zm-27.62,11,16.38.09A6.58,6.58,0,0,0,655,593a7.64,7.64,0,0,0-4.31-1.74Q643.56,590.67,640.94,597.26Z" transform="translate(-245.03 -449.74)" fill="#fff"/><path d="M696.67,632.05q-8.83,0-14.25-5.72t-5.33-16.09l.19-47.68,18.32-5.43.1,47.69q0,4,2.13,5.86a7.22,7.22,0,0,0,4.94,1.89,5.7,5.7,0,0,0,3.3-.87l4.26,17.15A34.09,34.09,0,0,1,696.67,632.05Z" transform="translate(-245.03 -449.74)" fill="#fff"/><path d="M729.33,632.05q-8.82,0-14.25-5.72t-5.33-16.09l.19-47.68,18.32-5.43.1,47.69q0,4,2.13,5.86a7.22,7.22,0,0,0,4.94,1.89,5.7,5.7,0,0,0,3.3-.87L743,628.85A34.05,34.05,0,0,1,729.33,632.05Z" transform="translate(-245.03 -449.74)" fill="#fff"/><path d="M754.23,627.88a27.56,27.56,0,0,1-9.93-10.13,26.78,26.78,0,0,1-3.63-13.52,23.24,23.24,0,0,1,4.11-13.76,27,27,0,0,1,10.37-8.82,29,29,0,0,1,12.65-3,31.73,31.73,0,0,1,14.54,3.15,22.82,22.82,0,0,1,9.59,9,26.37,26.37,0,0,1,3.4,13.57,27.46,27.46,0,0,1-3.59,13.91,26.11,26.11,0,0,1-9.84,9.84,27.24,27.24,0,0,1-13.81,3.58A26.43,26.43,0,0,1,754.23,627.88Zm21.18-15.31a9.6,9.6,0,0,0,2.67-7.17,11.08,11.08,0,0,0-2.52-7.37c-1.69-2-4.17-3-7.47-3a9.73,9.73,0,0,0-7.22,2.9,9.87,9.87,0,0,0-2.86,7.18,9.54,9.54,0,0,0,3,7.22,10.67,10.67,0,0,0,7.66,2.86A9.24,9.24,0,0,0,775.41,612.57Z" transform="translate(-245.03 -449.74)" fill="#fff"/><path d="M292.08,499.81l2.43,37.69q-6.35.68-12.7,1.42L279.05,501q-6.85.63-13.69,1.34-1-6.6-2-13.18,20.82-2.15,41.69-3.74.87,6.61,1.75,13.22Q299.46,499.2,292.08,499.81Z" transform="translate(-245.03 -449.74)" fill="#fff"/><path d="M329,501.28a12.29,12.29,0,0,1,4.07,3.14q-2.08,5.24-4.14,10.47a6,6,0,0,0-5.27-2.45,5.89,5.89,0,0,0-5.15,2.78q-1.62,2.64-1.61,8.43.3,6.38.59,12.75-6,.27-12,.6-1-17.7-1.91-35.39,6.12-.33,12.25-.61l.14,3.05a13.57,13.57,0,0,1,3.94-2.67,12.41,12.41,0,0,1,4.48-1.09A9.75,9.75,0,0,1,329,501.28Z" transform="translate(-245.03 -449.74)" fill="#fff"/><path d="M369.21,499.36q.23,17.58.44,35.17-6.12.08-12.25.2c0-1.09,0-2.17-.07-3.26a11.07,11.07,0,0,1-4.06,3.12,13.47,13.47,0,0,1-5.39,1.23q-6.63.18-10.14-4.25c-2.34-3-3.58-7.36-3.69-13.21l-.45-18.28q6.11-.22,12.2-.38.21,8.81.41,17.61a6.26,6.26,0,0,0,1.46,4.25,5.35,5.35,0,0,0,8-.86,9.3,9.3,0,0,0,1.42-5.51v.06q-.13-7.85-.26-15.68Q363,499.44,369.21,499.36Z" transform="translate(-245.03 -449.74)" fill="#fff"/><path d="M379.64,532.67a19,19,0,0,1-6.53-6.79,18.61,18.61,0,0,1-2.51-9.18,17.9,17.9,0,0,1,2.22-9,17.45,17.45,0,0,1,6.26-6.53,16.71,16.71,0,0,1,8.79-2.43,18.93,18.93,0,0,1,8.4,2,18,18,0,0,1,6.65,5.43,11.89,11.89,0,0,1,2.48,7.34q-5.49.43-11,.92a6,6,0,0,0-2.12-3.1,5.58,5.58,0,0,0-3.44-1.16,6.59,6.59,0,0,0-4.67,2,6,6,0,0,0-2,4.49,6.13,6.13,0,0,0,1,3.26,7.83,7.83,0,0,0,2.57,2.58,6.18,6.18,0,0,0,3.29,1,5.82,5.82,0,0,0,3.21-1,5.64,5.64,0,0,0,2.19-2.52q5.4.54,10.79,1.13a11.51,11.51,0,0,1-2.5,6.93,18,18,0,0,1-6.33,5.24,17.28,17.28,0,0,1-7.94,2A16.32,16.32,0,0,1,379.64,532.67Z" transform="translate(-245.03 -449.74)" fill="#fff"/><path d="M430.78,535.29q.24-9.3.49-18.61a5.85,5.85,0,0,0-1.51-4.43,6.1,6.1,0,0,0-4.42-1.7c-3.1-.07-5.27,1.53-6.51,4.78q0,9.81-.11,19.62c-4-.14-8.07-.27-12.12-.38q-.15-26.67-.34-53.33,6.35.08,12.68.18,0,11.15-.08,22.28a14.16,14.16,0,0,1,5.21-3.55,15.53,15.53,0,0,1,6.42-1.25,11.71,11.71,0,0,1,9.53,4.74q3.44,4.56,3.23,12.14-.27,9.94-.55,19.87Q436.75,535.45,430.78,535.29Z" transform="translate(-245.03 -449.74)" fill="#fff"/><path d="M468.8,536.77l.09-3.12a13.43,13.43,0,0,1-4.44,2.24,15.6,15.6,0,0,1-5.33.68,13.91,13.91,0,0,1-7.76-2.76,17.41,17.41,0,0,1-5.51-6.76,19.38,19.38,0,0,1-1.82-9.11,18.75,18.75,0,0,1,2.54-9,16.6,16.6,0,0,1,6.39-6.25,16.37,16.37,0,0,1,8.77-2,13.26,13.26,0,0,1,4.8,1.09,9.32,9.32,0,0,1,3.53,2.57l.15-2.85c3.64.18,7.29.38,10.93.59q-.25,17.67-.56,35.33Q474.68,537.08,468.8,536.77Zm-3.69-12a7.51,7.51,0,0,0,2.61-2.7,8,8,0,0,0,1.1-3.71,6.39,6.39,0,0,0-1.5-4.64,5.75,5.75,0,0,0-4.26-2,7,7,0,0,0-5.13,1.83,6.55,6.55,0,0,0-2.37,4.82,6.91,6.91,0,0,0,.8,3.43,7.76,7.76,0,0,0,2.36,2.77,5.74,5.74,0,0,0,3.1,1.13A5.68,5.68,0,0,0,465.11,524.81Z" transform="translate(-245.03 -449.74)" fill="#fff"/><path d="M508.47,516a29.84,29.84,0,0,0-5.05-2.8,13.89,13.89,0,0,0-4.33-1.08,7.64,7.64,0,0,0-3.28.38q-1.32.51-1.38,1.44c-.07,1.1,1.41,1.75,4.46,2q6.66.46,10.18,3.41A8.51,8.51,0,0,1,512.2,527a11.07,11.07,0,0,1-2.68,6.43,15.35,15.35,0,0,1-6.17,4.36,17.86,17.86,0,0,1-8.07,1.23,20.94,20.94,0,0,1-8-2.16,15.87,15.87,0,0,1-5.86-4.72q3.49-3.58,7-7.16a11.77,11.77,0,0,0,7.46,3.42,7.58,7.58,0,0,0,3.44-.46c1-.4,1.47-.93,1.52-1.59a1.17,1.17,0,0,0-.83-1.19,9.65,9.65,0,0,0-3-.55,7.69,7.69,0,0,1-1.17,0,13.31,13.31,0,0,1-6-1.9,12.65,12.65,0,0,1-4.41-4.31,9.33,9.33,0,0,1-1.43-5.55,9.17,9.17,0,0,1,2.38-5.58,14.52,14.52,0,0,1,5.72-3.94,16.63,16.63,0,0,1,7.36-1.13,20.28,20.28,0,0,1,7.55,2.07,24.24,24.24,0,0,1,6.68,4.78Q511,512.54,508.47,516Z" transform="translate(-245.03 -449.74)" fill="#fff"/><path d="M788.17,648.18c.15-.38-5.16-3.81-11.58-6.62-6.16-2.69-9.24-3-12-2.57-1.73.27-4.45.75-5.42,3.08-.68,1.6-.49,4,.75,5.13,1.08,1,2.57.64,4.63.14,3.39-.81,4-1.94,6.37-2.64s4.38-.3,8.28.55C784.82,646.47,788.05,648.47,788.17,648.18Z" transform="translate(-245.03 -449.74)" fill="#bdddef"/><path d="M879.42,552.05c-1.48-23-10.45-38.85-26.67-52.93l-8.47-7.77c-8.35-7-36.74-22.42-46.87-26.61-1.16-.67-3.72-1.49-8.1-2.89-9.37-3-16.91-4.7-20.7-5.52-4.78-1-12.48-2.56-22.09-3.79-4.45-.58-9.91-1.27-17.25-1.63-11.19-.56-9.35.51-17.77,0-2-.12-4.62.23-9.83.94-1.57.21-3.12.45-4.14,1.72a4.31,4.31,0,0,0-.52,4.66c1.06,1.77,3.78.65,5.86,2.07,4.94,3.39,9,14.32,9,14.32-.86.74-3.9-.83-5.69-2.59-1.38-1.36-1.37-2.2-2.93-3.28-.44-.3-3-2-4.66-1a3.54,3.54,0,0,0-1.38,2.59c-.34,2.45,1.18,4.53,1.9,5.52,5.44,7.52-.4,1.23,6.73,10.18,4,5.05,6,7.58,8.62,10.35a131.22,131.22,0,0,0,14.15,12.94c1.56,1.27,5.18,3.95,12.42,9.32,9.08,6.72,10.24,7.41,11.22,7.93l4.63,3.12c1.58,1.19,3.72,2.74,6.6,4.82,11.83,8.56,17.77,12.82,18.38,13.34a127.76,127.76,0,0,1,20.91,22c5.43,7.34,8.6,11.62,11.18,18.39,6.11,16.06,3,30.84,1.44,38.57a80.57,80.57,0,0,1-6.71,19.47,79.12,79.12,0,0,1-10.56,15.93,7.54,7.54,0,0,1-3.59,2.15,9.36,9.36,0,0,1-3.65,0c-3.54-.16-6.9,4.1-8.07,6.3-3.57,6.66.49,17.81,8.47,21.82,5.66,2.84,13.71,2.31,16.15-1.31.74-1.09,1.17-3.17,2-7.31.6-2.94.53-3.62,1.15-5,1.15-2.6,2.89-3.63,4.73-5.3a21.78,21.78,0,0,0,1.58-1.62,3.46,3.46,0,0,0,.63-.73h0a24.85,24.85,0,0,0,2.09-3.11c6.52-8.71,14.37-10.8,26-22.16,18.08-17.6,26.22-38.84,29.2-46.87C878.63,588.84,880.78,573.18,879.42,552.05Z" transform="translate(-245.03 -449.74)" fill="#f8d2c0"/><path d="M790.09,664.37c2.43-.71,3.74-.15,5.28-.32,3.89-.45,6.4-5.27,8.57-9.64,6.15-12.39,9.22-18.58,10.52-23.8,3-11.79,1.92-18.61,3-18.69,1.64-.11,6.85,14.73,4.19,31-1.95,11.92-5.69,9.71-11.9,29.74a57.35,57.35,0,0,1-8.83,16.22c-2.44,3.16-4.11,4.6-6.24,4.83-4.79.51-8.76-5.41-9.93-7.15s-4.15-6.18-3.2-11.93a13.18,13.18,0,0,1,3.53-7.2A11.71,11.71,0,0,1,790.09,664.37Z" transform="translate(-245.03 -449.74)" fill="#f0998f"/><path d="M831.71,484.58s29-1,47,6.19c0,0-1.8,9.92-5.66,45.22Z" transform="translate(-245.03 -449.74)" fill="#8a6d55"/><path d="M873.37,537.24l-42.68-53.12,1,0c.29,0,29.35-.91,47.16,6.23l.38.15-.07.4c0,.1-1.84,10.33-5.66,45.18Zm-40.64-52.18,39.91,49.67c3.32-30.24,5.11-41.48,5.47-43.64C862.34,484.93,838,485,832.73,485.06Z" transform="translate(-245.03 -449.74)" fill="#1d1d1b"/><path d="M837.74,487.74s35.33,3.33,38,4.7c0,0-33.87-3.24-36.4-3.19S837.74,487.74,837.74,487.74Z" transform="translate(-245.03 -449.74)" fill="#1d1d1b"/><path d="M842.9,491.82s26.67,2.43,31.08,4.37c0,0-27.22-3.7-30.29-2.9S842.9,491.82,842.9,491.82Z" transform="translate(-245.03 -449.74)" fill="#1d1d1b"/><path d="M847.3,495.86s19.9,2,26.5,4c0,0-22.36-2.61-26.09-2.6S847.3,495.86,847.3,495.86Z" transform="translate(-245.03 -449.74)" fill="#1d1d1b"/><path d="M850.25,500.21s17.64,1.14,22.23,3.08c0,0-15-1.68-21.42-2S850.25,500.21,850.25,500.21Z" transform="translate(-245.03 -449.74)" fill="#1d1d1b"/><path d="M855.31,504.28s13.46.65,17,2.64c0,0-13.84-2.68-17.94-.87S855.31,504.28,855.31,504.28Z" transform="translate(-245.03 -449.74)" fill="#1d1d1b"/><path d="M857.33,509.26c1.81-.87,14.29,0,14.29,0-4.34-1.26-15.22-1.69-15.22-1.69Z" transform="translate(-245.03 -449.74)" fill="#1d1d1b"/><path d="M859.22,511.74a17.67,17.67,0,0,1,12.23,1.16s-7.21-1.4-10.22-.49Z" transform="translate(-245.03 -449.74)" fill="#1d1d1b"/><path d="M862.16,514.47s7.57-.3,9.72,1.33c0,0-6.65-.9-9.19,0Z" transform="translate(-245.03 -449.74)" fill="#1d1d1b"/><path d="M864.42,517.73s5.06-.43,7.32.93c0,0-4.71-.23-6.75.73Z" transform="translate(-245.03 -449.74)" fill="#1d1d1b"/><path d="M880.79,491.83" transform="translate(-245.03 -449.74)" fill="#9a9560"/><path d="M772.08,540s-6.12,13.95,7.23,27.94a31.05,31.05,0,0,0,6.11-17.46S772.28,540.77,772.08,540Z" transform="translate(-245.03 -449.74)" fill="#8a6d55"/><path d="M779.31,568.42a.52.52,0,0,1-.36-.16c-13.43-14.07-7.39-28.34-7.32-28.48a.47.47,0,0,1,.5-.3.49.49,0,0,1,.42.31c.59.84,8.37,6.73,13.17,10.26a.49.49,0,0,1,.2.42,31.28,31.28,0,0,1-6.22,17.77.51.51,0,0,1-.37.18Zm-7-27.52c-1,3-3.79,14.59,7,26.24a31,31,0,0,0,5.65-16.44C778.08,545.66,773.85,542.38,772.28,540.9Z" transform="translate(-245.03 -449.74)" fill="#1d1d1b"/><path d="M774.41,542.08a44.66,44.66,0,0,0-.46,5.63,37.07,37.07,0,0,0,.31,5.58,26.89,26.89,0,0,0,1.29,5.4L776,560l.59,1.26c.34.89.93,1.63,1.35,2.5a16.93,16.93,0,0,1-3.15-4.79,20.54,20.54,0,0,1-1.56-5.56A24.34,24.34,0,0,1,774.41,542.08Z" transform="translate(-245.03 -449.74)" fill="#1d1d1b"/><path d="M777.1,544.19c-.08,1.49-.08,2.95-.06,4.41s.11,2.91.28,4.35.35,2.89.63,4.32.62,2.85,1,4.3a19.83,19.83,0,0,1-1.72-4.12,24.37,24.37,0,0,1-.87-4.39,24,24,0,0,1-.05-4.48A18.21,18.21,0,0,1,777.1,544.19Z" transform="translate(-245.03 -449.74)" fill="#1d1d1b"/><path d="M779.39,545.94c.06,2.08,0,4.09.12,6.11,0,1,.12,2,.21,3s.28,2,.47,3a9.64,9.64,0,0,1-1.24-2.87,17.15,17.15,0,0,1-.44-3.1,19.08,19.08,0,0,1,.16-3.12A13.24,13.24,0,0,1,779.39,545.94Z" transform="translate(-245.03 -449.74)" fill="#1d1d1b"/><path d="M782.11,548a10.74,10.74,0,0,1,.61,3.36,10.61,10.61,0,0,1-.4,3.38,11.72,11.72,0,0,1-.21-6.74Z" transform="translate(-245.03 -449.74)" fill="#1d1d1b"/><path d="M703.25,460c.17-1.34,4.32-1,6.52-.26,3,1,4.85,2.48,7.14,4.37,7.53,6.24,7.53,6.39,9.89,8.29,5.65,4.56,7,5,10,7.7a20,20,0,0,0,3.45,2.65c1.14.66,1.86.91,3.46,1.84,1.1.64,2,1.22,2.53,1.61l-1.81.43-12.06-3.42-14-4.6s-5.43-14.26-9.08-17.6C708.31,460.12,703.07,461.4,703.25,460Z" transform="translate(-245.03 -449.74)" fill="#070908"/><path d="M720.93,460.9a22.21,22.21,0,0,1,5.29,3.4c2.22,2,2.5,3.14,4.74,5.27a22.23,22.23,0,0,0,5.85,4c3.16,1.46,3.8.67,9.47,2.17a31.15,31.15,0,0,1,7,2.47,19.1,19.1,0,0,1,5.57,3.72c1.61,1.64,2.08,2.84,3.62,3.4a5.32,5.32,0,0,0,3.9-.31c3.52-1.42,72.36,8,111.5,54.94-4.3-12.53-11.84-28.86-22.64-38.23l-9.82-8.7c-8.35-7-32-21.48-42.19-25.68a45.15,45.15,0,0,0-8.75-3.85c-9.37-3-14.58-4.67-18.37-5.49-4.78-1-12.48-2.55-22.09-3.79-4.45-.57-14.9-2.83-22.24-3.19-11.2-.56-5.82.47-14.24,0a45.55,45.55,0,0,0-9.74.56c-1.52.2-9.2.83-10.22,2C703.09,454.18,715.16,458,720.93,460.9Z" transform="translate(-245.03 -449.74)" fill="#896d55"/><circle cx="498.34" cy="16.02" r="5.64" fill="#e1d876"/><path d="M743.37,471.9a6.14,6.14,0,1,1,6.14-6.14A6.14,6.14,0,0,1,743.37,471.9Zm0-11.27a5.14,5.14,0,1,0,5.14,5.13A5.13,5.13,0,0,0,743.37,460.63Z" transform="translate(-245.03 -449.74)" fill="#1d1d1b"/><path d="M736.57,471.22s7.22-4.29,11.79,1.3" transform="translate(-245.03 -449.74)" fill="#8a6d55"/><path d="M736.55,471.18a11.84,11.84,0,0,1,6.24-1.91,6.4,6.4,0,0,1,3.31.78,5.75,5.75,0,0,1,2.3,2.44s0,.05,0,.07h-.06a15.73,15.73,0,0,0-2.67-1.62,9.54,9.54,0,0,0-2.9-.86,10.22,10.22,0,0,0-3.11.2,13.18,13.18,0,0,0-3,1s-.05,0-.07,0A0,0,0,0,1,736.55,471.18Z" transform="translate(-245.03 -449.74)" fill="#1d1d1b"/><circle cx="498.34" cy="16.72" r="3.41" fill="#0b0a0d"/><circle cx="497.04" cy="15.08" r="1.3" fill="#fff"/><circle cx="499.4" cy="18.24" r="0.61" fill="#fff"/><path d="M765,492.77a52.57,52.57,0,0,1-5.38-9.95c-1.79-4.33-2.68-6.52-1.92-8.17,2.05-4.48,14.12-3,16.49-2.7,10.52,1.29,21,5.25,47.86,23.52,0,0,13.66,9.28,32.44,24.61,10.87,8.86,16.72,14.31,20.82,23.25a57.39,57.39,0,0,1,4.48,16.48c1.63,10.92-.78,26.45-4.08,27.13-3.46.7-3.87-15.74-15.81-35.23-8.06-13.16-20.43-33.35-42.18-42.45C798.5,501.23,771.71,501.74,765,492.77Z" transform="translate(-245.03 -449.74)" fill="#f09758"/><path d="M787.45,521.56c-18.55-5.28-29.9-4.88-33.58-13.2-1.67-3.77-2.07-10,.86-12.63,2.72-2.39,7-.51,8.61-3.16,1-1.69.24-4.08-.57-6.6-1.33-4.11-3-4.84-2.58-6,1-2.72,11.32-3,20.66.86a38,38,0,0,1,10.62,6.61c9.52,8.32,6.1,2.7,41,27.84,24.7,17.77,29,22.42,32.72,27.84a64.52,64.52,0,0,1,9.47,20.09c3.33,12.46,2.6,25.58.86,25.84-.89.13-1.65-3.24-4-8.33-3.94-8.47-8.7-13.84-13.21-18.94-10.08-11.4-22.06-18-32.15-23.54C816.58,533,804.62,526.45,787.45,521.56Z" transform="translate(-245.03 -449.74)" fill="#f0998f"/><path d="M820.72,518s-2,5.48-12.74,8.27c0,0-1.23,8.3,6.68,17.78s16.47,10.29,27.11,19c0,0,9.72-10.65-4.91-28.56A129.66,129.66,0,0,0,820.72,518Z" transform="translate(-245.03 -449.74)" fill="#8a6d55"/><path d="M841.77,563.47a.48.48,0,0,1-.32-.11,75.45,75.45,0,0,0-12.52-8c-5.17-2.81-10.06-5.48-14.65-11-8-9.55-6.85-17.82-6.79-18.17a.48.48,0,0,1,.36-.41c10.32-2.68,12.38-7.91,12.4-8a.48.48,0,0,1,.34-.31.51.51,0,0,1,.45.1,131.88,131.88,0,0,1,16.22,16.51c14.72,18,5,29.1,4.88,29.21A.5.5,0,0,1,841.77,563.47Zm-33.33-36.83c-.11,1.59-.19,8.91,6.6,17.06,4.48,5.35,9.06,7.85,14.37,10.75a77.22,77.22,0,0,1,12.29,7.82c1.52-2,7.62-11.81-5.22-27.54a129.82,129.82,0,0,0-15.6-16C820,520.32,817,524.32,808.44,526.64Z" transform="translate(-245.03 -449.74)" fill="#1d1d1b"/><path d="M810.05,527.56s2.69,9.82,6.42,15.81l-5.39-15.61Z" transform="translate(-245.03 -449.74)" fill="#1d1d1b"/><polygon points="567.17 77.18 568.26 76.75 577.47 97.48 567.17 77.18" fill="#1d1d1b"/><path d="M814.65,526.55l1.13-.68s11.77,18.93,12.59,25.1C828.37,551,816.44,528.53,814.65,526.55Z" transform="translate(-245.03 -449.74)" fill="#1d1d1b"/><path d="M817.2,524.57l.74-1.16s12.41,14.45,13.57,29.57A68.89,68.89,0,0,0,817.2,524.57Z" transform="translate(-245.03 -449.74)" fill="#1d1d1b"/><path d="M818.85,522.9l.5-.79s18.92,17.56,17.78,33.36C837.13,555.47,835.93,540.05,818.85,522.9Z" transform="translate(-245.03 -449.74)" fill="#1d1d1b"/><path d="M820.41,521.73l.83-1.3s23.28,18.93,21.23,38C842.47,558.42,840.87,538.89,820.41,521.73Z" transform="translate(-245.03 -449.74)" fill="#1d1d1b"/><path d="M710.86,482c3.34,1.33,6.56,2.85,9.85,4.26l9.67,4.57L735.2,493a48.25,48.25,0,0,0,4.85,1.84A46.79,46.79,0,0,0,750.11,497a44,44,0,0,0,5.13.32,17.8,17.8,0,0,0,4.77-.49,5.94,5.94,0,0,0,1-.38l1.18-.59a16.26,16.26,0,0,0,2.11-1.23,12.34,12.34,0,0,0,3.19-3.48,22.84,22.84,0,0,0,2.29-4.52,21.2,21.2,0,0,0,.76-2.43c.19-.83.33-1.67.45-2.53a19.31,19.31,0,0,0,.06-5.15,15.53,15.53,0,0,0-1.54-5h0a.09.09,0,0,1,0-.13.1.1,0,0,1,.13,0,14.43,14.43,0,0,1,2,5,20.54,20.54,0,0,1,.3,5.36,21,21,0,0,1-1,5.27A23.46,23.46,0,0,1,768.8,492a13,13,0,0,1-3.47,4.1,18.14,18.14,0,0,1-2.29,1.42,16.06,16.06,0,0,1-2.44,1.16,18.69,18.69,0,0,1-5.35.66,50.51,50.51,0,0,1-5.36-.28,47.49,47.49,0,0,1-10.46-2.38,73.84,73.84,0,0,1-9.76-4.42l-18.91-10.05a.1.1,0,0,1,0-.13.11.11,0,0,1,.13-.05Z" transform="translate(-245.03 -449.74)"/><path d="M733.16,472c1.56.37,3.13.71,4.68,1s3.14.52,4.71.68,3.18.32,4.83.6a24.15,24.15,0,0,1,4.86,1.41,16.77,16.77,0,0,1,2.38,1.16,7.32,7.32,0,0,1,2.22,2,7.85,7.85,0,0,1,1.13,2.82,6,6,0,0,1-.19,3.27,4.47,4.47,0,0,1-.39.83,3.42,3.42,0,0,1-.63.8,5.29,5.29,0,0,1-1.46,1,11.19,11.19,0,0,1-2.74.83,25.18,25.18,0,0,1-5.18.32,27.68,27.68,0,0,1-5.09-.75c-.89-.23-1.61-.48-2.38-.71l-2.3-.72c-3-1-6.1-2-9.13-3.05s-6.06-2.14-9.05-3.49c-1.47-.7-2.88-1.46-4.31-2.22s-2.84-1.52-4.24-2.32h0a.09.09,0,0,1,0-.13.11.11,0,0,1,.13-.05c2.95,1.25,5.86,2.59,8.84,3.75s6.07,2,9.13,3l9.21,2.75c1.54.44,3.08.93,4.61,1.34a24.94,24.94,0,0,0,4.71.64,23.54,23.54,0,0,0,4.75-.24,9,9,0,0,0,2.26-.65,2.75,2.75,0,0,0,1.55-1.57,5.42,5.42,0,0,0-.66-4.45,8.61,8.61,0,0,0-3.77-2.72,24.8,24.8,0,0,0-4.52-1.53c-1.55-.36-3.14-.58-4.72-.88a55.11,55.11,0,0,1-9.27-2.56.09.09,0,0,1-.06-.12.11.11,0,0,1,.12-.07Z" transform="translate(-245.03 -449.74)"/><path d="M742.9,500.61a54,54,0,0,0,17.71,3.79,32.56,32.56,0,0,0,8.88-.61,39.21,39.21,0,0,0,4.29-1.21,25.06,25.06,0,0,0,4-1.76,21.1,21.1,0,0,0,3.61-2.46,25.33,25.33,0,0,0,3.05-3.16,17.1,17.1,0,0,0,3.63-7.83,14.25,14.25,0,0,0-.91-8.59,11.81,11.81,0,0,0-2.44-3.69,11,11,0,0,0-3.79-2.42,10.89,10.89,0,0,1,7.11,5.68,14.59,14.59,0,0,1,1.55,4.49,16.64,16.64,0,0,1,0,4.78,18.24,18.24,0,0,1-3.68,8.76,23.39,23.39,0,0,1-7.19,6.19,25.82,25.82,0,0,1-4.38,1.86,36.07,36.07,0,0,1-4.54,1.21,31.72,31.72,0,0,1-9.37.31,49.42,49.42,0,0,1-9.1-1.75A42.93,42.93,0,0,1,742.9,500.61Z" transform="translate(-245.03 -449.74)"/><path d="M725.65,494.63a61.75,61.75,0,0,0,7.12,4.9,46,46,0,0,0,7.71,3.57,50.07,50.07,0,0,0,8.21,2.25,72.77,72.77,0,0,0,8.59,1,29.17,29.17,0,0,1-8.8.53,33.81,33.81,0,0,1-8.69-1.92,32.18,32.18,0,0,1-7.87-4.14A27.38,27.38,0,0,1,725.65,494.63Z" transform="translate(-245.03 -449.74)"/><path d="M735.42,505.68a56.5,56.5,0,0,0,7,3.57c1.2.48,2.37.93,3.62,1.32a38.16,38.16,0,0,0,3.68,1,27.64,27.64,0,0,0,7.54.68,33.62,33.62,0,0,0,7.65-1.32,18.68,18.68,0,0,1-7.49,2.87,21.25,21.25,0,0,1-8.14-.28,30.92,30.92,0,0,1-7.54-2.91A23.94,23.94,0,0,1,735.42,505.68Z" transform="translate(-245.03 -449.74)"/><path d="M841,507.59c6,2.67,26,17.26,33.61,28.44,6.39,9.38,5.17,23.82,2.43,24.87-1,.37-.67-2.48-.67-2.48s-.71-7.43-2.17-11.58c-4-11.38-9.6-17.62-12.16-20.14-4.65-4.56-7.9-4.92-18.8-13.92-1.79-1.48-16.2-8.51-15.54-9.92C828.11,502,840.5,507.35,841,507.59Z" transform="translate(-245.03 -449.74)" fill="#e7b65f"/><path d="M799.18,695.28a18.94,18.94,0,0,1-8.38-1.94,19.61,19.61,0,0,1-9.43-11.55c-1.35-4.25-1.16-8.49.52-11.63,1.05-2,4.75-7,9-6.82.29,0,.58,0,.89.09a6.18,6.18,0,0,0,2.48-.06,6.67,6.67,0,0,0,3.1-1.87,77.6,77.6,0,0,0,10.39-15.7,79.44,79.44,0,0,0,6.63-19.22c1.61-7.77,4.61-22.23-1.4-38-2.52-6.63-5.55-10.72-11-18.14a127,127,0,0,0-20.76-21.83c-.4-.34-3.84-2.83-9.55-7l-8.88-6.42c-2.86-2.07-4.94-3.57-6.5-4.75l-4.59-3.09c-.86-.45-1.83-1-11.25-8l-.12-.09c-7.17-5.31-10.77-8-12.34-9.26a132.1,132.1,0,0,1-14.25-13A113.28,113.28,0,0,1,705,486.61a26.24,26.24,0,0,1-2.64-4,52.5,52.5,0,0,0-4.1-6.23c-.82-1.12-2.47-3.41-2.08-6.24a4.26,4.26,0,0,1,1.86-3.31c1.46-.86,3.49-.48,5.73,1.07a7.12,7.12,0,0,1,2,2,8.14,8.14,0,0,0,1.11,1.37,10.81,10.81,0,0,0,3.52,2.29c-1.24-3-4.44-10-8.06-12.48a5.37,5.37,0,0,0-2.6-.71c-1.28-.14-2.73-.3-3.56-1.67a5.32,5.32,0,0,1,.6-5.81c1.3-1.61,3.23-1.87,4.78-2.08,5.27-.72,7.91-1.08,10-.95a49.48,49.48,0,0,0,7.44,0,75.5,75.5,0,0,1,10.32,0c7.54.37,13.2,1.1,17.33,1.64,7.46,1,14.92,2.24,22.17,3.8,7,1.51,14,3.38,20.79,5.55,4.66,1.48,7,2.24,8.24,2.94,10.59,4.4,38.84,19.81,47.07,26.74l8.5,7.8c17.25,15,25.58,31.51,27,53.6h0c1.58,24.6-1.65,39.35-4.64,47.39-2.68,7.2-10.84,29.13-29.44,47.23a110.31,110.31,0,0,1-14.14,11.51c-4.69,3.34-8.39,6-11.78,10.5a32.77,32.77,0,0,1-2.7,3.08c-2.22,2.39-5.57,6-6.25,7.53a9.27,9.27,0,0,0-.65,2.48c-.1.6-.23,1.34-.43,2.33-.9,4.4-1.31,6.41-2.16,7.67C806.66,694,803.11,695.28,799.18,695.28Zm-8.53-29.95c-2.95,0-6,3.86-7,5.77-1.43,2.67-1.57,6.35-.38,10.09a17.52,17.52,0,0,0,8.42,10.36c5.26,2.65,12.77,2.16,14.88-1,.62-.93,1.06-3.06,1.85-6.94.2-1,.32-1.7.42-2.27a11.11,11.11,0,0,1,.79-3c.75-1.7,3.44-4.66,6.61-8.08,1.07-1.16,2.29-2.47,2.47-2.78l.07-.1c3.59-4.79,7.6-7.66,12.24-11a108.34,108.34,0,0,0,13.91-11.31c18.29-17.79,26.32-39.4,29-46.5,2.93-7.85,6.08-22.31,4.52-46.56-1.38-21.52-9.5-37.63-26.33-52.23l-8.49-7.8c-8.1-6.81-36.13-22.09-46.58-26.41l-.12-.06a57.17,57.17,0,0,0-7.89-2.8c-6.76-2.15-13.7-4-20.61-5.5-7.19-1.55-14.6-2.83-22-3.78-4.1-.53-9.72-1.25-17.18-1.62a72.75,72.75,0,0,0-10.09,0,49.54,49.54,0,0,1-7.69,0c-1.91-.12-4.5.23-9.64.93-1.58.21-2.75.43-3.5,1.36a3.33,3.33,0,0,0-.44,3.51c.31.51.95.6,2.06.72a7.26,7.26,0,0,1,3.52,1.05c5.14,3.52,9.17,14.34,9.34,14.79a1,1,0,0,1-.29,1.11c-1.65,1.4-5.4-1-7-2.63a11.19,11.19,0,0,1-1.35-1.65,5.15,5.15,0,0,0-1.45-1.52c-1.5-1-2.87-1.42-3.58-1a2.4,2.4,0,0,0-.9,1.86c-.28,2,1,3.82,1.7,4.77a55.88,55.88,0,0,1,4.26,6.47,23.92,23.92,0,0,0,2.48,3.73,112.19,112.19,0,0,0,8.55,10.27,129.81,129.81,0,0,0,14.05,12.84c1.54,1.25,5.12,3.91,12.27,9.21l.12.08c9.31,6.9,10.25,7.41,11.09,7.86l4.72,3.17c1.59,1.2,3.66,2.7,6.52,4.76L772.8,540c6.33,4.57,9.22,6.65,9.68,7.05a129.09,129.09,0,0,1,21.07,22.16c5.41,7.31,8.68,11.73,11.3,18.62C821.07,604.18,818,619,816.34,627a82,82,0,0,1-6.8,19.72,80,80,0,0,1-10.69,16.13,8.52,8.52,0,0,1-4.1,2.47,7.68,7.68,0,0,1-3.23.11c-.25,0-.49-.07-.72-.08Z" transform="translate(-245.03 -449.74)"/><path d="M790.85,664.33s-15.05-5.59-28.6-2.36-12.9,4.39-12,5.8c1.23,2,5,5,6.88,6.46,3.72,2.85,15.91,9.89,15.91,9.89s5.45,4,6.67,5.8c.77,1.18,1.72,5.38,1.72,5.38L780.74,711v7.74a8.56,8.56,0,0,0,1.29,2.58c1.82,1.37,4.3,0,4.3,0l4.52-3.65s5.37-5.8,6.88-8c1.65-2.37,5.59-10.1,5.59-10.1l4.08-8.46s-7.1-1.06-9.24-2.08c-2.31-1.1-5.51-4.86-6.67-7.14-1.26-2.49-1.81-8.34-1.72-11.14C789.83,669.15,790.85,664.33,790.85,664.33Z" transform="translate(-245.03 -449.74)" fill="#8a6d55"/><path d="M783.94,722.42a3.62,3.62,0,0,1-2.21-.71,7.7,7.7,0,0,1-1.46-2.82l0-.16V711l.65-15.65a25.58,25.58,0,0,0-1.64-5.14c-1.15-1.75-6.49-5.64-6.54-5.68-.46-.26-12.22-7.06-15.92-9.9s-6.09-5.08-7-6.59a1.86,1.86,0,0,1-.36-1.76c.5-1.21,2.8-2.43,12.71-4.79,13.53-3.22,28.73,2.33,28.88,2.39l.41.15-.09.42s-1,4.79-1.07,6.36c-.1,2.9.5,8.59,1.67,10.9s4.29,5.89,6.43,6.91,9,2,9.11,2l.67.11-4.38,9.06c-.17.33-4,7.81-5.63,10.18-1.51,2.16-6.7,7.77-6.92,8l-4.57,3.7A6.05,6.05,0,0,1,783.94,722.42Zm-2.7-3.77a7.4,7.4,0,0,0,1.1,2.26c1.52,1.16,3.73,0,3.75,0l4.44-3.6s5.32-5.75,6.79-7.86c1.61-2.31,5.51-10,5.55-10l3.79-7.84c-1.84-.29-6.91-1.16-8.72-2-2.35-1.12-5.64-4.88-6.89-7.36-1.35-2.67-1.87-8.74-1.78-11.38a57.27,57.27,0,0,1,1-6.11c-2.48-.84-15.89-5.06-27.9-2.2-2.82.67-11.4,2.71-12,4.19-.08.21,0,.44.29.86.59,1,2.23,2.85,6.76,6.32,3.64,2.8,15.73,9.78,15.85,9.85s5.59,4.07,6.84,6c.8,1.22,1.69,5.1,1.79,5.54v.13L781.24,711Z" transform="translate(-245.03 -449.74)"/><path d="M795.7,687.56S787.29,697,784,699.69s9.08-5.16,12.52-11.37Z" transform="translate(-245.03 -449.74)" fill="#1d1d1b"/><path d="M798.66,689.47a64.29,64.29,0,0,1-15.16,17.58s10.86-7,16.21-17.3Z" transform="translate(-245.03 -449.74)" fill="#1d1d1b"/><path d="M801.05,690.14A99.74,99.74,0,0,1,785,714s11.37-9.93,17.29-23.6Z" transform="translate(-245.03 -449.74)" fill="#1d1d1b"/><path d="M803.73,690.61S798.66,708.67,785,718.8c0,0,9.79-2.86,20.11-27.8Z" transform="translate(-245.03 -449.74)" fill="#1d1d1b"/><path d="M792.93,684.5a95.89,95.89,0,0,1-9.43,8s3.88-.09,10.14-7Z" transform="translate(-245.03 -449.74)" fill="#1d1d1b"/><path d="M790.92,680s-3,1.72-8.7,5.92l9.18-4.2Z" transform="translate(-245.03 -449.74)" fill="#1d1d1b"/><path d="M790.25,677.14a46.4,46.4,0,0,0-12.71,4.59l12.71-3.44Z" transform="translate(-245.03 -449.74)" fill="#1d1d1b"/><path d="M790,675.7s-11.34-.57-18.13,2.2a40.86,40.86,0,0,1,17.87-4.1Z" transform="translate(-245.03 -449.74)" fill="#1d1d1b"/><path d="M789.49,670.55a72.93,72.93,0,0,0-24.08,3.24s13.76-3.4,24.08-1.65Z" transform="translate(-245.03 -449.74)" fill="#1d1d1b"/><path d="M790,668.68s-10.19-2.53-28.45,0c0,0,17.68-.43,27.91,1.1Z" transform="translate(-245.03 -449.74)" fill="#1d1d1b"/><path d="M790.54,666s-18.54-5.35-34.31,0c0,0,18.06-3.15,34,.76Z" transform="translate(-245.03 -449.74)" fill="#1d1d1b"/><path d="M860.43,578a2.06,2.06,0,0,0,.93.56h0s1-1.51.65-2a1.09,1.09,0,0,0-1.49.09A1.15,1.15,0,0,0,860.43,578Z" transform="translate(-245.03 -449.74)" fill="#4a2e22"/><path d="M865.59,578.52a2.11,2.11,0,0,0,.93.55h0s1-1.51.65-2a1.08,1.08,0,0,0-1.48.09A1.15,1.15,0,0,0,865.59,578.52Z" transform="translate(-245.03 -449.74)" fill="#4a2e22"/><path d="M864.67,583.27a2,2,0,0,0,.92.56h0s1-1.52.65-2.05a1.08,1.08,0,0,0-1.48.1A1.12,1.12,0,0,0,864.67,583.27Z" transform="translate(-245.03 -449.74)" fill="#4a2e22"/><path d="M811.08,664.17a2,2,0,0,0,.92.56h0s1-1.52.65-2a1.07,1.07,0,0,0-1.48.09A1.12,1.12,0,0,0,811.08,664.17Z" transform="translate(-245.03 -449.74)" fill="#4a2e22"/><path d="M805.61,665.32a2.11,2.11,0,0,0,.93.55h0s1-1.51.65-2a1.09,1.09,0,0,0-1.49.09A1.15,1.15,0,0,0,805.61,665.32Z" transform="translate(-245.03 -449.74)" fill="#4a2e22"/><path d="M819.42,641.22a2.06,2.06,0,0,0,.93.56h0s1-1.51.65-2a1.08,1.08,0,0,0-1.48.09A1.14,1.14,0,0,0,819.42,641.22Z" transform="translate(-245.03 -449.74)" fill="#4a2e22"/><path d="M818.5,649.61a2.09,2.09,0,0,0,.92.55h0s1-1.51.65-2a1.08,1.08,0,0,0-1.48.09A1.14,1.14,0,0,0,818.5,649.61Z" transform="translate(-245.03 -449.74)" fill="#4a2e22"/><path d="M805.3,670.37a2.11,2.11,0,0,0,.93.56h0s1-1.51.65-2a1.08,1.08,0,0,0-1.48.09A1.14,1.14,0,0,0,805.3,670.37Z" transform="translate(-245.03 -449.74)" fill="#4a2e22"/><path d="M809,671.52a2.11,2.11,0,0,0,.93.55h0s1-1.51.65-2a1.08,1.08,0,0,0-1.49.1A1.14,1.14,0,0,0,809,671.52Z" transform="translate(-245.03 -449.74)" fill="#4a2e22"/><path d="M803.45,678.49a2.06,2.06,0,0,0,.93.56h0s1-1.51.65-2a1.09,1.09,0,0,0-1.49.09A1.15,1.15,0,0,0,803.45,678.49Z" transform="translate(-245.03 -449.74)" fill="#4a2e22"/><path d="M800.63,673.88a2.11,2.11,0,0,0,.93.55h0s1-1.51.65-2a1.09,1.09,0,0,0-1.49.09A1.17,1.17,0,0,0,800.63,673.88Z" transform="translate(-245.03 -449.74)" fill="#4a2e22"/><path d="M813.91,656.43a2,2,0,0,0,.93.56h0s1-1.52.64-2A1.07,1.07,0,0,0,814,655,1.12,1.12,0,0,0,813.91,656.43Z" transform="translate(-245.03 -449.74)" fill="#4a2e22"/><path d="M814.25,647.87a2.06,2.06,0,0,0,.93.56h0s1-1.51.65-2a1.08,1.08,0,0,0-1.48.09A1.14,1.14,0,0,0,814.25,647.87Z" transform="translate(-245.03 -449.74)" fill="#4a2e22"/><path d="M803,664.17a2.06,2.06,0,0,0,.93.56h0s1-1.52.65-2a1.08,1.08,0,0,0-1.49.09A1.15,1.15,0,0,0,803,664.17Z" transform="translate(-245.03 -449.74)" fill="#4a2e22"/><path d="M802.52,659.19a2.11,2.11,0,0,0,.93.55h0s1-1.51.65-2a1.07,1.07,0,0,0-1.48.1A1.14,1.14,0,0,0,802.52,659.19Z" transform="translate(-245.03 -449.74)" fill="#4a2e22"/><path d="M798.05,668.15a2.11,2.11,0,0,0,.93.55h0s1-1.51.65-2a1.09,1.09,0,0,0-1.49.09A1.17,1.17,0,0,0,798.05,668.15Z" transform="translate(-245.03 -449.74)" fill="#4a2e22"/><path d="M801.17,683.94a2,2,0,0,0,.92.56h0s1-1.52.65-2a1.08,1.08,0,0,0-1.48.09A1.12,1.12,0,0,0,801.17,683.94Z" transform="translate(-245.03 -449.74)" fill="#4a2e22"/><path d="M795.83,677.73a2,2,0,0,0,.92.56h0s1-1.52.65-2a1.08,1.08,0,0,0-1.48.1A1.12,1.12,0,0,0,795.83,677.73Z" transform="translate(-245.03 -449.74)" fill="#4a2e22"/><path d="M807.73,659.19a2.09,2.09,0,0,0,.92.55h0s1-1.51.65-2a1.07,1.07,0,0,0-1.48.1A1.12,1.12,0,0,0,807.73,659.19Z" transform="translate(-245.03 -449.74)" fill="#4a2e22"/><path d="M791.8,672.73a2.06,2.06,0,0,0,.93.56h0s1-1.52.65-2a1.08,1.08,0,0,0-1.49.09A1.15,1.15,0,0,0,791.8,672.73Z" transform="translate(-245.03 -449.74)" fill="#4a2e22"/><path d="M871.42,580.81a2.11,2.11,0,0,0,.93.55h0s1-1.51.65-2a1.08,1.08,0,0,0-1.49.1A1.12,1.12,0,0,0,871.42,580.81Z" transform="translate(-245.03 -449.74)" fill="#4a2e22"/><path d="M857.63,566.75a2.11,2.11,0,0,0,.93.55h0s1-1.51.65-2a1.08,1.08,0,0,0-1.49.1A1.14,1.14,0,0,0,857.63,566.75Z" transform="translate(-245.03 -449.74)" fill="#4a2e22"/><path d="M855.24,559.72a2.28,2.28,0,0,0,.93.56h0s1-1.52.65-2a1.09,1.09,0,0,0-1.49.1A1.14,1.14,0,0,0,855.24,559.72Z" transform="translate(-245.03 -449.74)" fill="#4a2e22"/><path d="M868.61,587.55a2.11,2.11,0,0,0,.93.55h0s1-1.51.65-2a1.08,1.08,0,0,0-1.49.1A1.15,1.15,0,0,0,868.61,587.55Z" transform="translate(-245.03 -449.74)" fill="#4a2e22"/><path d="M864.67,572.68a2,2,0,0,0,.92.56h0s1-1.52.65-2a1.07,1.07,0,0,0-1.48.09A1.12,1.12,0,0,0,864.67,572.68Z" transform="translate(-245.03 -449.74)" fill="#4a2e22"/><path d="M856.17,549.13a2,2,0,0,0,.92.56h0s1-1.52.65-2.05a1.08,1.08,0,0,0-1.48.1A1.12,1.12,0,0,0,856.17,549.13Z" transform="translate(-245.03 -449.74)" fill="#4a2e22"/><path d="M872.07,567.36a2.11,2.11,0,0,0,.93.56h0s1-1.51.65-2a1.08,1.08,0,0,0-1.48.09A1.14,1.14,0,0,0,872.07,567.36Z" transform="translate(-245.03 -449.74)" fill="#4a2e22"/><path d="M863.69,560.15a2,2,0,0,0,.93.56h0s1-1.51.64-2a1.08,1.08,0,0,0-1.48.09A1.12,1.12,0,0,0,863.69,560.15Z" transform="translate(-245.03 -449.74)" fill="#4a2e22"/><path d="M863.75,538.7a2.11,2.11,0,0,0,.93.56h0s1-1.51.65-2a1.08,1.08,0,0,0-1.48.09A1.14,1.14,0,0,0,863.75,538.7Z" transform="translate(-245.03 -449.74)" fill="#4a2e22"/><path d="M863.75,543.57a2.11,2.11,0,0,0,.93.56h0s1-1.52.65-2a1.07,1.07,0,0,0-1.48.09A1.14,1.14,0,0,0,863.75,543.57Z" transform="translate(-245.03 -449.74)" fill="#4a2e22"/><path d="M847.08,538.54a2.06,2.06,0,0,0,.93.56h0s1-1.51.65-2a1.09,1.09,0,0,0-1.49.09A1.12,1.12,0,0,0,847.08,538.54Z" transform="translate(-245.03 -449.74)" fill="#4a2e22"/><path d="M849,530a2,2,0,0,0,.93.56h0s1-1.51.64-2a1.08,1.08,0,0,0-1.48.09A1.12,1.12,0,0,0,849,530Z" transform="translate(-245.03 -449.74)" fill="#4a2e22"/><path d="M856.78,529.14a2,2,0,0,0,.92.56h0s1-1.52.65-2a1.08,1.08,0,0,0-1.48.09A1.12,1.12,0,0,0,856.78,529.14Z" transform="translate(-245.03 -449.74)" fill="#4a2e22"/><path d="M860.2,525.72a2.11,2.11,0,0,0,.93.55h0s1-1.51.65-2a1.08,1.08,0,0,0-1.49.1A1.15,1.15,0,0,0,860.2,525.72Z" transform="translate(-245.03 -449.74)" fill="#4a2e22"/><path d="M837.38,525.56a2.06,2.06,0,0,0,.93.56h0s1-1.52.65-2a1.09,1.09,0,0,0-1.49.09A1.12,1.12,0,0,0,837.38,525.56Z" transform="translate(-245.03 -449.74)" fill="#4a2e22"/><path d="M818.88,634.82a1.09,1.09,0,0,0-1.49.1,1.14,1.14,0,0,0-.09,1.39" transform="translate(-245.03 -449.74)" fill="#4a2e22"/><path d="M818.88,638a1.09,1.09,0,0,0-1.49.09,1.15,1.15,0,0,0-.09,1.4" transform="translate(-245.03 -449.74)" fill="#4a2e22"/><path d="M815.7,638a1.09,1.09,0,0,0-1.49.09,1.17,1.17,0,0,0-.09,1.4" transform="translate(-245.03 -449.74)" fill="#4a2e22"/><path d="M813.58,642.24a1.08,1.08,0,0,0-1.48.09,1.14,1.14,0,0,0-.1,1.39" transform="translate(-245.03 -449.74)" fill="#4a2e22"/><path d="M811.46,650.71a1.08,1.08,0,0,0-1.48.09,1.12,1.12,0,0,0-.09,1.39" transform="translate(-245.03 -449.74)" fill="#4a2e22"/><path d="M807.23,655a1.08,1.08,0,0,0-1.49.09,1.15,1.15,0,0,0-.09,1.39" transform="translate(-245.03 -449.74)" fill="#4a2e22"/><path d="M840.8,522.14a2.11,2.11,0,0,0,.93.55h0s1-1.51.65-2a1.08,1.08,0,0,0-1.49.1A1.15,1.15,0,0,0,840.8,522.14Z" transform="translate(-245.03 -449.74)" fill="#4a2e22"/><path d="M848.79,514.78a2.06,2.06,0,0,0,.93.56h0s1-1.51.65-2a1.09,1.09,0,0,0-1.49.09A1.14,1.14,0,0,0,848.79,514.78Z" transform="translate(-245.03 -449.74)" fill="#4a2e22"/><path d="M852.21,511.36a2.11,2.11,0,0,0,.93.55h0s1-1.51.65-2a1.08,1.08,0,0,0-1.48.1A1.14,1.14,0,0,0,852.21,511.36Z" transform="translate(-245.03 -449.74)" fill="#4a2e22"/><path d="M852.21,516.23a2.11,2.11,0,0,0,.93.55h0s1-1.51.65-2a1.08,1.08,0,0,0-1.48.09A1.15,1.15,0,0,0,852.21,516.23Z" transform="translate(-245.03 -449.74)" fill="#4a2e22"/><path d="M833,518.36a2.06,2.06,0,0,0,.93.56h0s1-1.51.65-2a1.09,1.09,0,0,0-1.49.09A1.12,1.12,0,0,0,833,518.36Z" transform="translate(-245.03 -449.74)" fill="#4a2e22"/><path d="M836.45,514.94a2.28,2.28,0,0,0,.93.56h0s1-1.52.65-2a1.09,1.09,0,0,0-1.49.1A1.15,1.15,0,0,0,836.45,514.94Z" transform="translate(-245.03 -449.74)" fill="#4a2e22"/><path d="M826,519.65a2,2,0,0,0,.93.56h0s1-1.52.64-2.05a1.08,1.08,0,0,0-1.48.1A1.12,1.12,0,0,0,826,519.65Z" transform="translate(-245.03 -449.74)" fill="#4a2e22"/><path d="M810.81,519.65a2.06,2.06,0,0,0,.93.56h0s1-1.52.65-2.05a1.08,1.08,0,0,0-1.48.1A1.14,1.14,0,0,0,810.81,519.65Z" transform="translate(-245.03 -449.74)" fill="#4a2e22"/><path d="M818,512.73a2.11,2.11,0,0,0,.93.55h0s1-1.51.65-2a1.07,1.07,0,0,0-1.48.1A1.14,1.14,0,0,0,818,512.73Z" transform="translate(-245.03 -449.74)" fill="#4a2e22"/><path d="M821.39,514.17a2,2,0,0,0,.92.56h0s1-1.51.65-2a1.08,1.08,0,0,0-1.48.09A1.12,1.12,0,0,0,821.39,514.17Z" transform="translate(-245.03 -449.74)" fill="#4a2e22"/><path d="M807,514.78a2.11,2.11,0,0,0,.93.56h0s1-1.51.65-2a1.08,1.08,0,0,0-1.48.09A1.14,1.14,0,0,0,807,514.78Z" transform="translate(-245.03 -449.74)" fill="#4a2e22"/><path d="M802.88,504.29a2.06,2.06,0,0,0,.93.55h0s1-1.51.64-2a1.08,1.08,0,0,0-1.48.09A1.14,1.14,0,0,0,802.88,504.29Z" transform="translate(-245.03 -449.74)" fill="#4a2e22"/><path d="M816.45,505.73a2,2,0,0,0,.92.56h0s1-1.52.65-2a1.08,1.08,0,0,0-1.48.09A1.12,1.12,0,0,0,816.45,505.73Z" transform="translate(-245.03 -449.74)" fill="#4a2e22"/><path d="M788.37,500.86a2,2,0,0,0,.92.56h0s1-1.51.65-2a1.08,1.08,0,0,0-1.48.09A1.12,1.12,0,0,0,788.37,500.86Z" transform="translate(-245.03 -449.74)" fill="#4a2e22"/><path d="M808.71,509.16a2.06,2.06,0,0,0,.93.56h0s1-1.51.65-2a1.09,1.09,0,0,0-1.49.09A1.14,1.14,0,0,0,808.71,509.16Z" transform="translate(-245.03 -449.74)" fill="#4a2e22"/><path d="M823.52,503.14a2.06,2.06,0,0,0,.93.56h0s1-1.52.65-2.05a1.09,1.09,0,0,0-1.49.1A1.12,1.12,0,0,0,823.52,503.14Z" transform="translate(-245.03 -449.74)" fill="#4a2e22"/><path d="M826.94,499.72a2.11,2.11,0,0,0,.93.55h0s1-1.51.65-2a1.09,1.09,0,0,0-1.49.09A1.17,1.17,0,0,0,826.94,499.72Z" transform="translate(-245.03 -449.74)" fill="#4a2e22"/><path d="M826.94,504.58a2.06,2.06,0,0,0,.93.56h0s1-1.51.65-2a1.09,1.09,0,0,0-1.49.09A1.15,1.15,0,0,0,826.94,504.58Z" transform="translate(-245.03 -449.74)" fill="#4a2e22"/><path d="M838.77,499.29a2.13,2.13,0,0,0,.15,1.07h0s1.82-.14,2-.77c.1-.37-.35-1-1-1.1A1.16,1.16,0,0,0,838.77,499.29Z" transform="translate(-245.03 -449.74)" fill="#4a2e22"/><path d="M843.58,499.82a2.13,2.13,0,0,0,.15,1.07h0s1.82-.15,2-.77c.11-.38-.35-1.05-1-1.1A1.14,1.14,0,0,0,843.58,499.82Z" transform="translate(-245.03 -449.74)" fill="#4a2e22"/><path d="M835.57,506.51a2.06,2.06,0,0,0,.14,1.07h0s1.83-.14,2-.77c.11-.38-.35-1-1-1.1A1.13,1.13,0,0,0,835.57,506.51Z" transform="translate(-245.03 -449.74)" fill="#4a2e22"/><path d="M831.22,490.52a2.1,2.1,0,0,0,.14,1.08h0s1.83-.15,2-.78c.11-.37-.35-1-1-1.1A1.14,1.14,0,0,0,831.22,490.52Z" transform="translate(-245.03 -449.74)" fill="#4a2e22"/><path d="M836,491.05a2,2,0,0,0,.15,1.07h0s1.82-.15,2-.77c.11-.38-.35-1.05-1-1.1A1.13,1.13,0,0,0,836,491.05Z" transform="translate(-245.03 -449.74)" fill="#4a2e22"/><path d="M832.23,494.1a2.13,2.13,0,0,0,.15,1.07h0s1.82-.15,2-.77c.11-.38-.35-1-1-1.1A1.14,1.14,0,0,0,832.23,494.1Z" transform="translate(-245.03 -449.74)" fill="#4a2e22"/><path d="M815.22,495a2.15,2.15,0,0,0,.15,1.08h0s1.82-.15,2-.78c.11-.37-.35-1-1-1.1A1.16,1.16,0,0,0,815.22,495Z" transform="translate(-245.03 -449.74)" fill="#4a2e22"/><path d="M820,495.56a2.06,2.06,0,0,0,.14,1.07h0s1.83-.15,2-.77c.11-.38-.35-1.05-1-1.1A1.13,1.13,0,0,0,820,495.56Z" transform="translate(-245.03 -449.74)" fill="#4a2e22"/><path d="M810.93,485.06a2.13,2.13,0,0,0,.15,1.07h0s1.82-.15,2-.77c.11-.38-.35-1.05-1-1.1A1.14,1.14,0,0,0,810.93,485.06Z" transform="translate(-245.03 -449.74)" fill="#4a2e22"/><path d="M800.59,479.17a2.13,2.13,0,0,0,.15,1.07h0s1.82-.15,2-.78c.1-.37-.35-1-1-1.09A1.14,1.14,0,0,0,800.59,479.17Z" transform="translate(-245.03 -449.74)" fill="#4a2e22"/><path d="M817.37,484.76a2.06,2.06,0,0,0,.93.56h0s1-1.51.65-2a1.08,1.08,0,0,0-1.48.09A1.14,1.14,0,0,0,817.37,484.76Z" transform="translate(-245.03 -449.74)" fill="#4a2e22"/><path d="M809.08,476.66a2,2,0,0,0,.15,1.07h0s1.82-.15,2-.77c.1-.38-.36-1-1-1.1A1.13,1.13,0,0,0,809.08,476.66Z" transform="translate(-245.03 -449.74)" fill="#4a2e22"/><path d="M793.38,478a2.13,2.13,0,0,0,.15,1.07h0s1.82-.14,2-.77c.1-.37-.35-1-1-1.1A1.15,1.15,0,0,0,793.38,478Z" transform="translate(-245.03 -449.74)" fill="#4a2e22"/><path d="M805.23,492.22a2.06,2.06,0,0,0,.93.56h0s1-1.51.65-2a1.09,1.09,0,0,0-1.49.09A1.15,1.15,0,0,0,805.23,492.22Z" transform="translate(-245.03 -449.74)" fill="#4a2e22"/><path d="M791.6,493.36a2,2,0,0,0,.15,1.07h0s1.82-.14,2-.77c.11-.37-.35-1-1-1.1A1.14,1.14,0,0,0,791.6,493.36Z" transform="translate(-245.03 -449.74)" fill="#4a2e22"/><path d="M806.66,500.67a2.13,2.13,0,0,0,.15,1.07h0s1.82-.15,2-.77a1.08,1.08,0,0,0-1-1.1A1.14,1.14,0,0,0,806.66,500.67Z" transform="translate(-245.03 -449.74)" fill="#4a2e22"/><path d="M791.17,483.81a2.06,2.06,0,0,0,.93.56h0s1-1.51.65-2a1.08,1.08,0,0,0-1.48.09A1.14,1.14,0,0,0,791.17,483.81Z" transform="translate(-245.03 -449.74)" fill="#4a2e22"/><path d="M780.31,476.25a2,2,0,0,0,.15,1.07h0s1.82-.15,2-.78c.11-.37-.35-1-1-1.09A1.13,1.13,0,0,0,780.31,476.25Z" transform="translate(-245.03 -449.74)" fill="#4a2e22"/><path d="M781.33,479.82a2.06,2.06,0,0,0,.14,1.07h0s1.82-.15,2-.77c.11-.38-.35-1.05-1-1.1A1.12,1.12,0,0,0,781.33,479.82Z" transform="translate(-245.03 -449.74)" fill="#4a2e22"/><path d="M784.36,479.09a2,2,0,0,0,.15,1.07h0s1.82-.14,2-.77c.11-.38-.35-1-1-1.1A1.14,1.14,0,0,0,784.36,479.09Z" transform="translate(-245.03 -449.74)" fill="#4a2e22"/><path d="M772.38,472.46a2.12,2.12,0,0,0,.14,1.08h0s1.82-.15,2-.78c.11-.37-.35-1-1-1.1A1.14,1.14,0,0,0,772.38,472.46Z" transform="translate(-245.03 -449.74)" fill="#4a2e22"/><path d="M773.39,476a2.13,2.13,0,0,0,.15,1.07h0s1.82-.15,2-.77a1.08,1.08,0,0,0-1-1.1A1.14,1.14,0,0,0,773.39,476Z" transform="translate(-245.03 -449.74)" fill="#4a2e22"/><path d="M774.57,461.76a2.06,2.06,0,0,0,.14,1.07h0s1.82-.15,2-.77c.11-.38-.35-1.05-1-1.1A1.12,1.12,0,0,0,774.57,461.76Z" transform="translate(-245.03 -449.74)" fill="#4a2e22"/><path d="M778.62,464.6a2.12,2.12,0,0,0,.14,1.08h0s1.83-.15,2-.78c.11-.37-.35-1-1-1.1A1.14,1.14,0,0,0,778.62,464.6Z" transform="translate(-245.03 -449.74)" fill="#4a2e22"/><path d="M766.13,460.91a2.13,2.13,0,0,0,.15,1.07h0s1.82-.15,2-.77c.11-.38-.35-1-1-1.1A1.14,1.14,0,0,0,766.13,460.91Z" transform="translate(-245.03 -449.74)" fill="#4a2e22"/><path d="M764.11,465.83a2,2,0,0,0,.15,1.07h0s1.82-.14,2-.77c.11-.37-.35-1-1-1.1A1.14,1.14,0,0,0,764.11,465.83Z" transform="translate(-245.03 -449.74)" fill="#4a2e22"/><path d="M768.16,468.68a2,2,0,0,0,.15,1.07h0s1.82-.15,2-.77c.11-.38-.35-1.05-1-1.1A1.13,1.13,0,0,0,768.16,468.68Z" transform="translate(-245.03 -449.74)" fill="#4a2e22"/><path d="M758.66,458.21a2.06,2.06,0,0,0,.14,1.07h0s1.83-.15,2-.77c.11-.38-.35-1.05-1-1.1A1.13,1.13,0,0,0,758.66,458.21Z" transform="translate(-245.03 -449.74)" fill="#4a2e22"/><path d="M756.55,464.71a2.21,2.21,0,0,0,.15,1.08h0s1.82-.15,2-.78c.11-.37-.35-1-1-1.1A1.16,1.16,0,0,0,756.55,464.71Z" transform="translate(-245.03 -449.74)" fill="#4a2e22"/><path d="M749.48,456.42a2,2,0,0,0,.15,1.07h0s1.82-.15,2-.77c.11-.38-.35-1-1-1.1A1.13,1.13,0,0,0,749.48,456.42Z" transform="translate(-245.03 -449.74)" fill="#4a2e22"/><path d="M750.5,460a2.1,2.1,0,0,0,.14,1.08h0s1.83-.15,2-.78c.11-.37-.35-1-1-1.1A1.14,1.14,0,0,0,750.5,460Z" transform="translate(-245.03 -449.74)" fill="#4a2e22"/><path d="M737.19,455.48a2.12,2.12,0,0,0,.14,1.08h0s1.83-.15,2-.78c.11-.37-.35-1-1-1.1A1.14,1.14,0,0,0,737.19,455.48Z" transform="translate(-245.03 -449.74)" fill="#4a2e22"/><path d="M731.05,459.06a2,2,0,0,0,.15,1.07h0s1.82-.15,2-.77c.1-.38-.36-1.05-1-1.1A1.13,1.13,0,0,0,731.05,459.06Z" transform="translate(-245.03 -449.74)" fill="#4a2e22"/><path d="M724.77,455.06a2.07,2.07,0,0,0,.15,1.08h0s1.82-.15,2-.78c.11-.37-.35-1-1-1.1A1.15,1.15,0,0,0,724.77,455.06Z" transform="translate(-245.03 -449.74)" fill="#4a2e22"/><path d="M760.88,471.54a2.13,2.13,0,0,0,.15,1.07h0s1.82-.14,2-.77c.1-.37-.35-1-1-1.1A1.15,1.15,0,0,0,760.88,471.54Z" transform="translate(-245.03 -449.74)" fill="#4a2e22"/><path d="M798,471.5a2.06,2.06,0,0,0,.14,1.07h0s1.83-.14,2-.77c.11-.37-.35-1-1-1.1A1.13,1.13,0,0,0,798,471.5Z" transform="translate(-245.03 -449.74)" fill="#4a2e22"/><path d="M802.79,472a2,2,0,0,0,.15,1.07h0s1.82-.15,2-.77c.11-.38-.35-1.05-1-1.1A1.13,1.13,0,0,0,802.79,472Z" transform="translate(-245.03 -449.74)" fill="#4a2e22"/><path d="M785.86,466.68a2,2,0,0,0,.15,1.07h0s1.82-.14,2-.77c.1-.38-.36-1-1-1.1A1.14,1.14,0,0,0,785.86,466.68Z" transform="translate(-245.03 -449.74)" fill="#4a2e22"/><path d="M790.67,467.21a2.13,2.13,0,0,0,.15,1.07h0s1.82-.15,2-.77a1.08,1.08,0,0,0-1-1.1A1.14,1.14,0,0,0,790.67,467.21Z" transform="translate(-245.03 -449.74)" fill="#4a2e22"/><path d="M775.5,469.1a2.06,2.06,0,0,0,.14,1.07h0s1.82-.14,2-.77c.11-.37-.35-1-1-1.1A1.14,1.14,0,0,0,775.5,469.1Z" transform="translate(-245.03 -449.74)" fill="#4a2e22"/><path d="M800.46,495.66a2.13,2.13,0,0,0,.15,1.07h0s1.82-.15,2-.77c.1-.38-.35-1-1-1.1A1.14,1.14,0,0,0,800.46,495.66Z" transform="translate(-245.03 -449.74)" fill="#4a2e22"/><path d="M792.29,507.52a2.06,2.06,0,0,0,.14,1.07h0s1.83-.15,2-.77c.11-.38-.35-1.05-1-1.1A1.13,1.13,0,0,0,792.29,507.52Z" transform="translate(-245.03 -449.74)" fill="#4a2e22"/><path d="M797.1,508a2,2,0,0,0,.15,1.07h0s1.82-.14,2-.77c.1-.37-.36-1-1-1.1A1.14,1.14,0,0,0,797.1,508Z" transform="translate(-245.03 -449.74)" fill="#4a2e22"/><path d="M873.41,544.64s9.9,30.14-3.08,59.88C870.33,604.52,878.38,574.55,873.41,544.64Z" transform="translate(-245.03 -449.74)" fill="#fdfbe6"/><circle cx="625.72" cy="93.49" r="1.4" fill="#fdfbe6"/><path d="M783.49,541.83S812,563.88,819,592,818,545.48,783.49,541.83Z" transform="translate(-245.03 -449.74)" fill="#fdfbe6"/><circle cx="535.12" cy="90.29" r="1.24" fill="#fdfbe6"/></svg>