<svg id="Capa_1" data-name="Capa 1" xmlns="http://www.w3.org/2000/svg" viewBox="0 0 635.81 272.68"><path d="M324.69,306h-246c-25.55,0-38.29,12.53-38.29,12.53-33.13,25.34-1.73,112.1-1.73,112.1C51.05,381.42,89,382.8,89,382.8H296.34C297.32,377.08,309.65,323.15,324.69,306Z" transform="translate(-25.16 -284.87)" fill="#ea602c"/><path d="M135.75,466.59l-2-43.52-9.31,43.52H105L94.27,425.88l-.48,39.64-19.39.1V392.16l14,.87,14.83.48,10.85,39,7.37-39.55h30.33l3.4,73Z" transform="translate(-25.16 -284.87)" fill="#1d1d1b"/><path d="M194.1,466.4l-.1-4.56a20.19,20.19,0,0,1-6.49,3.59,24.06,24.06,0,0,1-7.95,1.35,21.19,21.19,0,0,1-11.82-3.53,25.38,25.38,0,0,1-8.63-9.55,27.65,27.65,0,0,1-3.2-13.18,27.13,27.13,0,0,1,3.3-13.28A24.52,24.52,0,0,1,181,414.35a20.07,20.07,0,0,1,7.13,1.26,13.51,13.51,0,0,1,5.37,3.49v-4.17H209.6l2.23,51.47Zm-6.4-17.16a11,11,0,0,0,3.68-4.12,11.46,11.46,0,0,0,1.36-5.47,9.21,9.21,0,0,0-2.57-6.64,8.56,8.56,0,0,0-6.44-2.67,10.59,10.59,0,0,0-7.47,3,9.49,9.49,0,0,0-3.19,7.17,9.68,9.68,0,0,0,1.4,4.94,11.23,11.23,0,0,0,3.68,3.88,8.35,8.35,0,0,0,9.55-.1Z" transform="translate(-25.16 -284.87)" fill="#1d1d1b"/><path d="M259,466.4H214.16l-.49-13.77,19.19-23.26H215.13V414.45h41.28l1.75,14.92-17.83,21.91,17.54-.88Z" transform="translate(-25.16 -284.87)" fill="#1d1d1b"/><path d="M306.23,466.4H261.36l-.49-13.77,19.19-23.26H262.33V414.45h41.28l1.75,14.92-17.84,21.91,17.55-.88Z" transform="translate(-25.16 -284.87)" fill="#1d1d1b"/><path d="M343.25,466.4l-.1-4.56a20.19,20.19,0,0,1-6.49,3.59,24,24,0,0,1-8,1.35,21.21,21.21,0,0,1-11.82-3.53,25.46,25.46,0,0,1-8.63-9.55,27.64,27.64,0,0,1-3.19-13.18,27.13,27.13,0,0,1,3.29-13.28,24.52,24.52,0,0,1,21.81-12.89,20,20,0,0,1,7.12,1.26,13.62,13.62,0,0,1,5.38,3.49v-4.17h16.09L361,466.4Zm-6.4-17.16a11,11,0,0,0,3.69-4.12,11.57,11.57,0,0,0,1.35-5.47,9.2,9.2,0,0,0-2.56-6.64,8.6,8.6,0,0,0-6.45-2.67,10.57,10.57,0,0,0-7.46,3,9.5,9.5,0,0,0-3.2,7.17,9.7,9.7,0,0,0,1.41,4.94,11.05,11.05,0,0,0,3.68,3.88,8.34,8.34,0,0,0,9.54-.1Z" transform="translate(-25.16 -284.87)" fill="#1d1d1b"/><path d="M401,416a18.16,18.16,0,0,1,5.82,4.8l-6.69,15a9,9,0,0,0-7.66-3.88q-5.24,0-7.8,3.74t-2.95,12.16V466.4h-18V414.74h18v4.46a19.81,19.81,0,0,1,6-3.64,18.15,18.15,0,0,1,6.63-1.31A14.48,14.48,0,0,1,401,416Z" transform="translate(-25.16 -284.87)" fill="#1d1d1b"/><path d="M448.7,421.43q6.68,7.06,6.68,19.28c0,1.36,0,2.39-.09,3.1L421,444.2a14,14,0,0,0,3.24,5.28,7.47,7.47,0,0,0,4.9,2.28q7.75.58,11.24-4.55l13.86,4a18.61,18.61,0,0,1-4.85,8.19A25.45,25.45,0,0,1,440.8,465a27.05,27.05,0,0,1-10.33,2,15.59,15.59,0,0,1-1.93-.09,24.83,24.83,0,0,1-12.36-4.36,28.07,28.07,0,0,1-9-10.18,28.9,28.9,0,0,1-3.35-13.76,18,18,0,0,1,.1-2.23A21.88,21.88,0,0,1,407.84,425a24,24,0,0,1,9.31-7.85,28.72,28.72,0,0,1,12.74-2.81Q442,414.35,448.7,421.43Zm-27.63,10.95,16.38.1a6.61,6.61,0,0,0-2.27-4.37,7.64,7.64,0,0,0-4.32-1.74Q423.69,425.79,421.07,432.38Z" transform="translate(-25.16 -284.87)" fill="#1d1d1b"/><path d="M476.8,467.17q-8.82,0-14.25-5.72t-5.33-16.09l.2-47.68,18.31-5.43.1,47.69q0,4,2.13,5.86a7.23,7.23,0,0,0,5,1.89,5.68,5.68,0,0,0,3.29-.87L490.46,464A33.89,33.89,0,0,1,476.8,467.17Z" transform="translate(-25.16 -284.87)" fill="#1d1d1b"/><path d="M509.46,467.17q-8.82,0-14.25-5.72t-5.33-16.09l.2-47.68,18.31-5.43.1,47.69q0,4,2.13,5.86a7.23,7.23,0,0,0,5,1.89,5.68,5.68,0,0,0,3.29-.87L523.13,464A33.93,33.93,0,0,1,509.46,467.17Z" transform="translate(-25.16 -284.87)" fill="#1d1d1b"/><path d="M534.37,463a27.72,27.72,0,0,1-9.94-10.12,26.81,26.81,0,0,1-3.63-13.52,23.19,23.19,0,0,1,4.12-13.77,26.87,26.87,0,0,1,10.37-8.82,29,29,0,0,1,12.65-3,31.68,31.68,0,0,1,14.53,3.15,22.79,22.79,0,0,1,9.6,9,26.46,26.46,0,0,1,3.39,13.57,27.55,27.55,0,0,1-3.58,13.91A26.19,26.19,0,0,1,562,463.2a27.27,27.27,0,0,1-13.81,3.58A26.43,26.43,0,0,1,534.37,463Zm21.18-15.31a9.6,9.6,0,0,0,2.66-7.17,11.1,11.1,0,0,0-2.52-7.37q-2.52-3-7.46-3a9.68,9.68,0,0,0-7.22,2.91,9.8,9.8,0,0,0-2.86,7.17,9.55,9.55,0,0,0,3,7.22,10.65,10.65,0,0,0,7.66,2.86A9.22,9.22,0,0,0,555.55,447.69Z" transform="translate(-25.16 -284.87)" fill="#1d1d1b"/><path d="M72.21,334.93q1.23,18.85,2.44,37.69-6.36.69-12.71,1.43l-2.76-37.93q-6.84.64-13.68,1.34-1-6.58-2-13.18,20.82-2.14,41.69-3.74.89,6.61,1.75,13.23Q79.59,334.31,72.21,334.93Z" transform="translate(-25.16 -284.87)" fill="#fff"/><path d="M109.09,336.4a12.33,12.33,0,0,1,4.07,3.14Q111.07,344.78,109,350a6,6,0,0,0-5.27-2.45,5.93,5.93,0,0,0-5.15,2.78Q97,353,97,358.77q.28,6.38.59,12.75-6,.27-12,.6-.94-17.69-1.91-35.38,6.14-.33,12.26-.62l.14,3.06A13.36,13.36,0,0,1,100,336.5a12.24,12.24,0,0,1,4.48-1.08A9.59,9.59,0,0,1,109.09,336.4Z" transform="translate(-25.16 -284.87)" fill="#fff"/><path d="M149.34,334.48l.45,35.17q-6.14.08-12.25.2c0-1.08,0-2.17-.07-3.25a11.19,11.19,0,0,1-4.07,3.11,13.42,13.42,0,0,1-5.38,1.23c-4.43.12-7.8-1.29-10.14-4.25s-3.58-7.36-3.7-13.21q-.23-9.15-.44-18.28,6.09-.21,12.19-.38l.42,17.61a6.21,6.21,0,0,0,1.45,4.25,5.35,5.35,0,0,0,8-.86,9.21,9.21,0,0,0,1.42-5.51v.07q-.12-7.85-.25-15.69C141.08,334.6,145.21,334.54,149.34,334.48Z" transform="translate(-25.16 -284.87)" fill="#fff"/><path d="M159.77,367.79a18.88,18.88,0,0,1-6.52-6.79,18.61,18.61,0,0,1-2.51-9.18,17.74,17.74,0,0,1,2.22-9,17.38,17.38,0,0,1,6.25-6.54,16.64,16.64,0,0,1,8.8-2.42,18.81,18.81,0,0,1,8.4,2,18.06,18.06,0,0,1,6.64,5.43,11.9,11.9,0,0,1,2.49,7.34q-5.5.43-11,.92a5.93,5.93,0,0,0-2.11-3.09,5.55,5.55,0,0,0-3.44-1.17,6.59,6.59,0,0,0-4.68,2,6,6,0,0,0-2,4.49,6.28,6.28,0,0,0,1,3.26,8,8,0,0,0,2.58,2.58,6.07,6.07,0,0,0,3.28,1,5.84,5.84,0,0,0,3.22-1,5.55,5.55,0,0,0,2.18-2.52l10.8,1.14a11.57,11.57,0,0,1-2.5,6.92,17.91,17.91,0,0,1-6.34,5.24,17.27,17.27,0,0,1-7.93,2A16.27,16.27,0,0,1,159.77,367.79Z" transform="translate(-25.16 -284.87)" fill="#fff"/><path d="M210.91,370.41q.26-9.3.5-18.61a5.87,5.87,0,0,0-1.52-4.43,6.06,6.06,0,0,0-4.41-1.7c-3.1-.07-5.28,1.53-6.51,4.79q-.06,9.8-.11,19.61-6.06-.21-12.12-.38-.15-26.67-.34-53.33,6.33.08,12.67.19,0,11.13-.08,22.27a14.24,14.24,0,0,1,5.21-3.55,15.4,15.4,0,0,1,6.43-1.24,11.66,11.66,0,0,1,9.52,4.73q3.43,4.56,3.24,12.15-.28,9.93-.55,19.87Q216.87,370.57,210.91,370.41Z" transform="translate(-25.16 -284.87)" fill="#fff"/><path d="M248.93,371.89c0-1,.06-2.08.1-3.12a13.58,13.58,0,0,1-4.45,2.24,15.55,15.55,0,0,1-5.32.68,13.93,13.93,0,0,1-7.77-2.75,17.49,17.49,0,0,1-5.5-6.77,19.36,19.36,0,0,1-1.83-9.11,18.76,18.76,0,0,1,2.55-9,16.53,16.53,0,0,1,6.39-6.25,16.33,16.33,0,0,1,8.76-2,13.42,13.42,0,0,1,4.8,1.09,9.28,9.28,0,0,1,3.54,2.57c0-1,.09-1.9.14-2.85,3.65.18,7.29.38,10.94.59q-.27,17.67-.56,35.33Q254.83,372.2,248.93,371.89Zm-3.68-12a7.68,7.68,0,0,0,2.61-2.7,8.17,8.17,0,0,0,1.1-3.71,6.36,6.36,0,0,0-1.5-4.63,5.73,5.73,0,0,0-4.27-2,7,7,0,0,0-5.13,1.83,6.58,6.58,0,0,0-2.36,4.82,6.78,6.78,0,0,0,.8,3.43,7.65,7.65,0,0,0,2.35,2.77,5.5,5.5,0,0,0,6.4.23Z" transform="translate(-25.16 -284.87)" fill="#fff"/><path d="M288.6,351.16a30.17,30.17,0,0,0-5.05-2.8,13.82,13.82,0,0,0-4.33-1.08,7.66,7.66,0,0,0-3.28.38c-.88.34-1.33.82-1.37,1.44q-.12,1.65,4.46,2,6.66.46,10.17,3.41a8.53,8.53,0,0,1,3.14,7.64,11.15,11.15,0,0,1-2.69,6.43,15.44,15.44,0,0,1-6.16,4.37,18,18,0,0,1-8.08,1.22,20.89,20.89,0,0,1-8-2.16,15.69,15.69,0,0,1-5.86-4.72q3.48-3.58,7-7.16a11.7,11.7,0,0,0,7.46,3.42,7.6,7.6,0,0,0,3.45-.46c1-.4,1.47-.93,1.51-1.59a1.17,1.17,0,0,0-.83-1.19,9.58,9.58,0,0,0-3-.55,7.83,7.83,0,0,1-1.18,0,13.39,13.39,0,0,1-6-1.9,12.71,12.71,0,0,1-4.4-4.31,9.32,9.32,0,0,1-1.43-5.54,9.22,9.22,0,0,1,2.37-5.59,14.61,14.61,0,0,1,5.73-3.93,16.43,16.43,0,0,1,7.35-1.14,20.47,20.47,0,0,1,7.56,2.07,24,24,0,0,1,6.67,4.78Z" transform="translate(-25.16 -284.87)" fill="#fff"/><path d="M568.3,483.3c.15-.37-5.16-3.81-11.58-6.61-6.16-2.7-9.24-3-12-2.58-1.72.28-4.44.75-5.42,3.08-.67,1.61-.49,4,.76,5.13,1.08,1,2.57.64,4.62.15,3.39-.82,4-2,6.38-2.65s4.37-.3,8.28.55C565,481.59,568.19,483.59,568.3,483.3Z" transform="translate(-25.16 -284.87)" fill="#acd1ea"/><path d="M659.56,387.17c-1.49-23.05-10.46-38.85-26.68-52.93l-8.47-7.77c-8.35-7-36.74-22.42-46.87-26.61-1.15-.67-3.71-1.49-8.09-2.88-9.37-3-16.92-4.71-20.71-5.53-4.78-1-12.47-2.55-22.08-3.79-4.45-.57-9.91-1.27-17.25-1.63-11.2-.55-9.36.52-17.78,0-2-.12-4.62.23-9.83.94-1.56.21-3.11.45-4.14,1.72a4.35,4.35,0,0,0-.52,4.66c1.07,1.77,3.79.65,5.87,2.07,4.94,3.39,9,14.32,9,14.32-.87.74-3.91-.83-5.69-2.59-1.39-1.36-1.38-2.19-2.94-3.27-.44-.31-3-2.05-4.65-1a3.54,3.54,0,0,0-1.39,2.59c-.33,2.46,1.19,4.53,1.9,5.52,5.44,7.52-.4,1.23,6.73,10.18,4,5.06,6,7.59,8.63,10.35a130.28,130.28,0,0,0,14.15,12.94c1.56,1.27,5.18,3.95,12.42,9.32,9.07,6.72,10.24,7.41,11.21,7.93l4.64,3.12c1.57,1.19,3.71,2.74,6.59,4.82,11.83,8.56,17.78,12.82,18.39,13.34a128.54,128.54,0,0,1,20.91,22c5.43,7.34,8.6,11.63,11.17,18.39,6.11,16.06,3.05,30.85,1.44,38.57a79.69,79.69,0,0,1-6.71,19.47,78.67,78.67,0,0,1-10.56,15.94,7.6,7.6,0,0,1-3.58,2.15,9.82,9.82,0,0,1-3.66,0c-3.53-.16-6.89,4.09-8.07,6.29-3.56,6.66.5,17.81,8.47,21.82,5.67,2.85,13.72,2.31,16.16-1.31.74-1.09,1.16-3.16,2-7.31.6-2.94.52-3.62,1.14-5,1.16-2.6,2.9-3.63,4.73-5.3A20,20,0,0,0,597,507a3.19,3.19,0,0,0,.63-.73h0a23.15,23.15,0,0,0,2.09-3.11c6.52-8.71,14.38-10.8,26.06-22.16,18.07-17.59,26.21-38.84,29.2-46.87C658.76,424,660.92,408.3,659.56,387.17Z" transform="translate(-25.16 -284.87)" fill="#f8d2c0"/><path d="M570.23,499.49c2.42-.71,3.74-.15,5.27-.32,3.9-.44,6.41-5.27,8.57-9.64,6.15-12.39,9.23-18.58,10.53-23.79,2.95-11.8,1.91-18.62,3-18.7,1.64-.11,6.85,14.73,4.19,31-1.95,11.92-5.69,9.71-11.89,29.74A57.55,57.55,0,0,1,581.07,524c-2.44,3.16-4.11,4.6-6.24,4.83-4.78.52-8.76-5.41-9.93-7.15s-4.15-6.18-3.19-11.93a13.14,13.14,0,0,1,3.53-7.2A11.64,11.64,0,0,1,570.23,499.49Z" transform="translate(-25.16 -284.87)" fill="#f0998f"/><path d="M611.84,319.7s29-1,47,6.19c0,0-1.8,9.92-5.66,45.22Z" transform="translate(-25.16 -284.87)" fill="#8a6d55"/><path d="M653.51,372.36l-42.68-53.12,1,0c.29,0,29.34-.91,47.16,6.23l.38.15-.07.4c0,.1-1.85,10.33-5.66,45.18Zm-40.64-52.18,39.91,49.68c3.32-30.24,5.1-41.49,5.46-43.65C642.48,320.05,618.11,320.1,612.87,320.18Z" transform="translate(-25.16 -284.87)" fill="#1d1d1b"/><path d="M617.88,322.87s35.33,3.33,37.94,4.7c0,0-33.86-3.25-36.39-3.19S617.88,322.87,617.88,322.87Z" transform="translate(-25.16 -284.87)" fill="#1d1d1b"/><path d="M623,326.94s26.67,2.44,31.07,4.37c0,0-27.21-3.7-30.28-2.9S623,326.94,623,326.94Z" transform="translate(-25.16 -284.87)" fill="#1d1d1b"/><path d="M627.43,331s19.9,2,26.5,4c0,0-22.35-2.61-26.08-2.6S627.43,331,627.43,331Z" transform="translate(-25.16 -284.87)" fill="#1d1d1b"/><path d="M630.38,335.33s17.64,1.14,22.24,3.08c0,0-15-1.68-21.43-2S630.38,335.33,630.38,335.33Z" transform="translate(-25.16 -284.87)" fill="#1d1d1b"/><path d="M635.45,339.4s13.45.65,17,2.64c0,0-13.83-2.68-17.94-.87S635.45,339.4,635.45,339.4Z" transform="translate(-25.16 -284.87)" fill="#1d1d1b"/><path d="M637.46,344.38c1.82-.87,14.3,0,14.3,0-4.34-1.26-15.23-1.69-15.23-1.69Z" transform="translate(-25.16 -284.87)" fill="#1d1d1b"/><path d="M639.36,346.86A17.62,17.62,0,0,1,651.58,348s-7.2-1.4-10.21-.5Z" transform="translate(-25.16 -284.87)" fill="#1d1d1b"/><path d="M642.29,349.59s7.58-.3,9.73,1.33c0,0-6.66-.9-9.19,0Z" transform="translate(-25.16 -284.87)" fill="#1d1d1b"/><path d="M644.56,352.85s5.06-.43,7.32.93c0,0-4.71-.23-6.75.73Z" transform="translate(-25.16 -284.87)" fill="#1d1d1b"/><path d="M660.92,327" transform="translate(-25.16 -284.87)" fill="#9a9560"/><path d="M552.22,375.1s-6.13,13.95,7.23,27.94a31.05,31.05,0,0,0,6.11-17.46S552.41,375.89,552.22,375.1Z" transform="translate(-25.16 -284.87)" fill="#8a6d55"/><path d="M559.45,403.54a.48.48,0,0,1-.36-.15c-13.43-14.07-7.39-28.35-7.33-28.49a.49.49,0,0,1,.5-.3.51.51,0,0,1,.42.31c.59.84,8.37,6.73,13.17,10.27a.51.51,0,0,1,.21.41,31.28,31.28,0,0,1-6.22,17.77.49.49,0,0,1-.37.18Zm-7-27.52c-1,3-3.8,14.59,7,26.25a31,31,0,0,0,5.64-16.44C558.21,380.78,554,377.5,552.42,376Z" transform="translate(-25.16 -284.87)" fill="#1d1d1b"/><path d="M554.55,377.2a44.68,44.68,0,0,0-.47,5.63,35.81,35.81,0,0,0,.32,5.58,25.84,25.84,0,0,0,1.29,5.41l.48,1.31.6,1.27c.34.88.92,1.63,1.34,2.49a17.25,17.25,0,0,1-3.15-4.78,20.36,20.36,0,0,1-1.55-5.56A24.12,24.12,0,0,1,554.55,377.2Z" transform="translate(-25.16 -284.87)" fill="#1d1d1b"/><path d="M557.24,379.32c-.09,1.48-.08,2.94-.06,4.4s.11,2.91.27,4.36.35,2.88.63,4.31.62,2.85,1,4.3a19.64,19.64,0,0,1-1.73-4.12,23.51,23.51,0,0,1-.86-4.39,24.84,24.84,0,0,1-.06-4.48A18.05,18.05,0,0,1,557.24,379.32Z" transform="translate(-25.16 -284.87)" fill="#1d1d1b"/><path d="M559.52,381.06c.07,2.08,0,4.1.13,6.11,0,1,.11,2,.2,3s.28,2,.48,3a9.7,9.7,0,0,1-1.24-2.88,15.55,15.55,0,0,1-.44-3.1,19.08,19.08,0,0,1,.15-3.12A13.78,13.78,0,0,1,559.52,381.06Z" transform="translate(-25.16 -284.87)" fill="#1d1d1b"/><path d="M562.25,383.12a10.34,10.34,0,0,1,.6,3.35,10.07,10.07,0,0,1-.4,3.38,11.58,11.58,0,0,1-.2-6.73Z" transform="translate(-25.16 -284.87)" fill="#1d1d1b"/><path d="M483.38,295.16c.18-1.33,4.32-1,6.53-.26,3,1,4.84,2.48,7.13,4.38,7.54,6.24,7.54,6.38,9.89,8.28,5.66,4.56,7,5,10,7.7a19.13,19.13,0,0,0,3.45,2.65c1.13.66,1.85.91,3.45,1.84,1.1.64,2,1.22,2.53,1.61l-1.81.43-12.06-3.42-14-4.6s-5.42-14.26-9.07-17.6C488.44,295.25,483.2,296.52,483.38,295.16Z" transform="translate(-25.16 -284.87)" fill="#070908"/><path d="M501.06,296a21.7,21.7,0,0,1,5.29,3.41c2.23,2,2.51,3.13,4.74,5.26a22.41,22.41,0,0,0,5.85,4c3.16,1.46,3.8.67,9.47,2.17a31,31,0,0,1,7,2.47,19,19,0,0,1,5.58,3.72c1.6,1.64,2.07,2.85,3.62,3.4a5.29,5.29,0,0,0,3.9-.31c3.51-1.42,72.35,8,111.5,54.94-4.31-12.53-11.85-28.85-22.65-38.23l-9.81-8.7c-8.35-7-32.06-21.48-42.19-25.67a44.53,44.53,0,0,0-8.76-3.86c-9.36-3-14.58-4.66-18.37-5.48-4.78-1-12.47-2.56-22.08-3.8-4.45-.57-14.91-2.83-22.25-3.19-11.19-.56-5.82.47-14.24,0a46.27,46.27,0,0,0-9.74.56c-1.51.21-9.19.83-10.22,2C483.22,289.3,495.3,293.15,501.06,296Z" transform="translate(-25.16 -284.87)" fill="#896d55"/><circle cx="498.34" cy="16.02" r="5.64" fill="#e1d876"/><path d="M523.51,307a6.14,6.14,0,1,1,6.14-6.13A6.15,6.15,0,0,1,523.51,307Zm0-11.27a5.14,5.14,0,1,0,5.14,5.14A5.14,5.14,0,0,0,523.51,295.75Z" transform="translate(-25.16 -284.87)" fill="#1d1d1b"/><path d="M516.71,306.34s7.22-4.28,11.79,1.3" transform="translate(-25.16 -284.87)" fill="#8a6d55"/><path d="M516.68,306.3a11.85,11.85,0,0,1,6.25-1.91,6.42,6.42,0,0,1,3.31.78,5.87,5.87,0,0,1,2.3,2.44.06.06,0,0,1,0,.07h-.06a15.48,15.48,0,0,0-2.68-1.61,9.22,9.22,0,0,0-2.89-.87,10.61,10.61,0,0,0-3.12.2,12.9,12.9,0,0,0-3,1,0,0,0,0,1-.06,0A0,0,0,0,1,516.68,306.3Z" transform="translate(-25.16 -284.87)" fill="#1d1d1b"/><circle cx="498.34" cy="16.72" r="3.41" fill="#0b0a0d"/><circle cx="497.04" cy="15.08" r="1.3" fill="#fff"/><circle cx="499.4" cy="18.24" r="0.61" fill="#fff"/><path d="M545.11,327.89a52.15,52.15,0,0,1-5.37-9.95c-1.8-4.32-2.68-6.52-1.93-8.16,2.06-4.49,14.12-3,16.5-2.71,10.51,1.3,21,5.25,47.85,23.52,0,0,13.66,9.28,32.45,24.61,10.87,8.87,16.71,14.31,20.82,23.25a58,58,0,0,1,4.48,16.48c1.63,10.92-.79,26.45-4.09,27.13-3.45.71-3.86-15.73-15.81-35.23-8.06-13.16-20.42-33.35-42.17-42.45C578.63,336.35,551.85,336.86,545.11,327.89Z" transform="translate(-25.16 -284.87)" fill="#f09758"/><path d="M567.59,356.69c-18.55-5.29-29.9-4.88-33.58-13.21-1.68-3.77-2.08-10,.86-12.63,2.71-2.39,7-.51,8.61-3.15,1-1.69.24-4.08-.58-6.61-1.33-4.11-3-4.84-2.58-6,1-2.73,11.32-3,20.67.86a37.86,37.86,0,0,1,10.62,6.6c9.52,8.32,6.09,2.7,41,27.84,24.7,17.77,29,22.42,32.73,27.84a64.45,64.45,0,0,1,9.47,20.1c3.33,12.45,2.6,25.57.86,25.83-.9.13-1.65-3.24-4-8.32-3.94-8.48-8.69-13.85-13.2-18.95-10.08-11.39-22.07-18-32.15-23.54C596.72,368.09,584.75,361.57,567.59,356.69Z" transform="translate(-25.16 -284.87)" fill="#f0998f"/><path d="M600.85,353.09s-2,5.48-12.74,8.27c0,0-1.22,8.3,6.68,17.78s16.47,10.29,27.11,19c0,0,9.72-10.66-4.9-28.57A130.21,130.21,0,0,0,600.85,353.09Z" transform="translate(-25.16 -284.87)" fill="#8a6d55"/><path d="M621.9,398.6a.47.47,0,0,1-.31-.12,74.74,74.74,0,0,0-12.53-8c-5.17-2.82-10-5.49-14.65-11-8-9.54-6.84-17.82-6.79-18.17a.49.49,0,0,1,.37-.41c10.31-2.68,12.37-7.91,12.39-8a.52.52,0,0,1,.34-.31.54.54,0,0,1,.46.1,131.33,131.33,0,0,1,16.21,16.51c14.72,18,5,29.1,4.88,29.21A.5.5,0,0,1,621.9,398.6Zm-33.32-36.84c-.11,1.6-.2,8.91,6.6,17.06,4.47,5.36,9.05,7.86,14.36,10.75a76.89,76.89,0,0,1,12.29,7.83c1.52-2,7.63-11.81-5.22-27.55a129.7,129.7,0,0,0-15.59-16C600.15,355.44,597.17,359.44,588.58,361.76Z" transform="translate(-25.16 -284.87)" fill="#1d1d1b"/><path d="M590.18,362.68s2.7,9.83,6.43,15.81l-5.39-15.61Z" transform="translate(-25.16 -284.87)" fill="#1d1d1b"/><polygon points="567.17 77.18 568.26 76.75 577.47 97.48 567.17 77.18" fill="#1d1d1b"/><path d="M594.79,361.67l1.13-.67s11.76,18.92,12.59,25.1C608.51,386.1,596.57,363.65,594.79,361.67Z" transform="translate(-25.16 -284.87)" fill="#1d1d1b"/><path d="M597.33,359.69l.74-1.16S610.49,373,611.65,388.1C611.65,388.1,609,373.8,597.33,359.69Z" transform="translate(-25.16 -284.87)" fill="#1d1d1b"/><path d="M599,358l.5-.78s18.93,17.55,17.79,33.35C617.27,390.59,616.07,375.17,599,358Z" transform="translate(-25.16 -284.87)" fill="#1d1d1b"/><path d="M600.54,356.85l.83-1.3s23.29,18.93,21.23,38C622.6,393.54,621,374,600.54,356.85Z" transform="translate(-25.16 -284.87)" fill="#1d1d1b"/><path d="M491,317.13c3.34,1.33,6.57,2.85,9.85,4.27l9.68,4.56,4.82,2.19a48.93,48.93,0,0,0,4.84,1.83,47.55,47.55,0,0,0,10.06,2.19,49.24,49.24,0,0,0,5.14.32,18.25,18.25,0,0,0,4.77-.5,6.7,6.7,0,0,0,1-.38l1.18-.59a16.59,16.59,0,0,0,2.1-1.22,12.41,12.41,0,0,0,3.2-3.49,22.8,22.8,0,0,0,2.28-4.52,20.67,20.67,0,0,0,.77-2.43c.19-.82.32-1.67.45-2.52a20.26,20.26,0,0,0,.06-5.16,16,16,0,0,0-1.54-5h0a.1.1,0,0,1,0-.13.08.08,0,0,1,.12,0,14.61,14.61,0,0,1,2,5,22.1,22.1,0,0,1-.72,10.63,24.15,24.15,0,0,1-2.17,4.91,13.16,13.16,0,0,1-3.47,4.1,17.16,17.16,0,0,1-2.3,1.42,15.62,15.62,0,0,1-2.44,1.16,18.28,18.28,0,0,1-5.34.66,50.56,50.56,0,0,1-5.37-.28,47.41,47.41,0,0,1-10.45-2.38,72.13,72.13,0,0,1-9.77-4.42l-18.9-10a.1.1,0,0,1,0-.14.09.09,0,0,1,.12,0Z" transform="translate(-25.16 -284.87)"/><path d="M513.29,307.12c1.57.38,3.13.72,4.69,1s3.13.51,4.71.67,3.17.33,4.83.61a24.51,24.51,0,0,1,4.86,1.4,16.17,16.17,0,0,1,2.37,1.16,7.32,7.32,0,0,1,2.22,2,7.7,7.7,0,0,1,1.14,2.82,6,6,0,0,1-.19,3.28,4.86,4.86,0,0,1-.4.83,3.85,3.85,0,0,1-.62.79,5.26,5.26,0,0,1-1.47,1,10.77,10.77,0,0,1-2.74.83,25.13,25.13,0,0,1-5.17.32,26.73,26.73,0,0,1-5.09-.75c-.9-.23-1.61-.48-2.39-.71l-2.29-.72c-3-1-6.11-2-9.13-3s-6.07-2.15-9.05-3.5c-1.48-.69-2.89-1.46-4.32-2.22s-2.84-1.52-4.23-2.32h0a.1.1,0,0,1,0-.14.09.09,0,0,1,.12,0c2.95,1.24,5.86,2.58,8.85,3.74s6.06,2,9.13,3l9.21,2.75c1.53.44,3.07.93,4.6,1.34a25.9,25.9,0,0,0,4.72.65,23.62,23.62,0,0,0,4.75-.25,9.09,9.09,0,0,0,2.25-.65,2.67,2.67,0,0,0,1.55-1.57,5.39,5.39,0,0,0-.65-4.44,8.64,8.64,0,0,0-3.78-2.73,24.7,24.7,0,0,0-4.51-1.53c-1.56-.35-3.15-.58-4.72-.88a56.16,56.16,0,0,1-9.28-2.55.1.1,0,0,1-.05-.13.08.08,0,0,1,.11-.06Z" transform="translate(-25.16 -284.87)"/><path d="M523,335.74a54.25,54.25,0,0,0,17.71,3.78,32.46,32.46,0,0,0,8.87-.61,39.37,39.37,0,0,0,4.3-1.21,24.58,24.58,0,0,0,4-1.76,20.71,20.71,0,0,0,3.61-2.46,26,26,0,0,0,3.06-3.15,17.22,17.22,0,0,0,3.62-7.84,14.1,14.1,0,0,0-.91-8.59,11.32,11.32,0,0,0-2.44-3.68,10.82,10.82,0,0,0-3.78-2.43,10.85,10.85,0,0,1,7.1,5.68,14.68,14.68,0,0,1,1.55,4.49,16,16,0,0,1,0,4.78,18.05,18.05,0,0,1-3.68,8.76,23,23,0,0,1-7.19,6.19,25.73,25.73,0,0,1-4.37,1.86,36.53,36.53,0,0,1-4.54,1.21,31.78,31.78,0,0,1-9.38.31,49.56,49.56,0,0,1-9.1-1.74A43.8,43.8,0,0,1,523,335.74Z" transform="translate(-25.16 -284.87)"/><path d="M505.78,329.76a63,63,0,0,0,7.12,4.9,47.68,47.68,0,0,0,7.71,3.57,51.34,51.34,0,0,0,8.21,2.24,71.21,71.21,0,0,0,8.59,1,29.15,29.15,0,0,1-8.8.53,33.65,33.65,0,0,1-8.68-1.92,32.07,32.07,0,0,1-7.88-4.14A27.74,27.74,0,0,1,505.78,329.76Z" transform="translate(-25.16 -284.87)"/><path d="M515.56,340.8a57.1,57.1,0,0,0,7,3.57c1.2.48,2.38.93,3.62,1.32s2.45.77,3.69,1a27.18,27.18,0,0,0,7.53.68,33.62,33.62,0,0,0,7.65-1.32,18.71,18.71,0,0,1-7.48,2.88,21.51,21.51,0,0,1-8.15-.29,31.08,31.08,0,0,1-7.54-2.91A23.53,23.53,0,0,1,515.56,340.8Z" transform="translate(-25.16 -284.87)"/><path d="M621.16,342.71c6,2.67,26,17.26,33.61,28.44,6.4,9.39,5.18,23.82,2.44,24.87-1,.37-.68-2.48-.68-2.48s-.7-7.43-2.16-11.57c-4-11.38-9.61-17.63-12.17-20.15-4.64-4.55-7.89-4.92-18.79-13.92-1.79-1.48-16.21-8.5-15.55-9.92C608.24,337.17,620.64,342.48,621.16,342.71Z" transform="translate(-25.16 -284.87)" fill="#e7b65f"/><path d="M579.31,530.4a19,19,0,0,1-8.38-1.94,19.64,19.64,0,0,1-9.43-11.55c-1.34-4.24-1.15-8.48.53-11.63,1.05-2,4.75-7,9-6.82.28,0,.57.05.88.09a6.17,6.17,0,0,0,2.48-.06,6.48,6.48,0,0,0,3.1-1.87,77.37,77.37,0,0,0,10.4-15.7,79.7,79.7,0,0,0,6.62-19.22c1.62-7.77,4.62-22.23-1.39-38-2.53-6.63-5.55-10.72-11-18.14a127.47,127.47,0,0,0-20.75-21.83c-.4-.34-3.85-2.83-9.56-6.95l-8.87-6.42c-2.87-2.07-4.94-3.57-6.51-4.75l-4.59-3.09c-.85-.45-1.82-1-11.25-8l-.11-.09c-7.17-5.31-10.77-8-12.35-9.25a132.57,132.57,0,0,1-14.24-13,111.63,111.63,0,0,1-8.7-10.43,27.44,27.44,0,0,1-2.64-4,50.53,50.53,0,0,0-4.1-6.22c-.81-1.13-2.47-3.42-2.08-6.25a4.26,4.26,0,0,1,1.87-3.31c1.45-.86,3.48-.48,5.73,1.07a7,7,0,0,1,1.95,2,8.76,8.76,0,0,0,1.12,1.36,10.9,10.9,0,0,0,3.51,2.3c-1.23-3-4.44-10-8.06-12.49a5.33,5.33,0,0,0-2.59-.71c-1.28-.14-2.73-.29-3.56-1.67a5.3,5.3,0,0,1,.59-5.8c1.31-1.62,3.24-1.88,4.79-2.09,5.26-.72,7.9-1.08,10-1a49.34,49.34,0,0,0,7.43,0,75.63,75.63,0,0,1,10.33,0c7.53.37,13.19,1.1,17.33,1.64,7.46,1,14.92,2.24,22.16,3.81,7,1.51,14,3.37,20.8,5.54,4.66,1.49,7,2.24,8.23,2.94,10.6,4.4,38.85,19.81,47.08,26.74l8.49,7.8c17.25,15,25.58,31.51,27,53.6h0c1.59,24.6-1.65,39.35-4.64,47.39-2.68,7.21-10.83,29.13-29.44,47.23a109.63,109.63,0,0,1-14.14,11.51c-4.68,3.34-8.38,6-11.78,10.5a31.45,31.45,0,0,1-2.7,3.08c-2.22,2.39-5.57,6-6.24,7.53a8.57,8.57,0,0,0-.65,2.49c-.11.59-.23,1.33-.43,2.32-.9,4.41-1.31,6.41-2.16,7.67C586.79,529.16,583.24,530.4,579.31,530.4Zm-8.52-29.95c-2.95,0-6,3.87-7,5.77-1.43,2.68-1.57,6.35-.38,10.09a17.57,17.57,0,0,0,8.42,10.36c5.26,2.65,12.77,2.16,14.88-1,.63-.93,1.06-3.06,1.85-6.94.2-1,.33-1.69.43-2.27a10.59,10.59,0,0,1,.79-3c.75-1.7,3.43-4.66,6.6-8.08,1.08-1.16,2.29-2.47,2.48-2.78l.06-.1c3.59-4.79,7.6-7.65,12.25-11a107.49,107.49,0,0,0,13.91-11.31c18.28-17.79,26.32-39.4,29-46.5,2.92-7.85,6.08-22.31,4.52-46.56-1.38-21.52-9.51-37.62-26.34-52.23l-8.49-7.8c-8.09-6.81-36.12-22.09-46.57-26.41l-.12-.06a58.93,58.93,0,0,0-7.9-2.8c-6.76-2.15-13.69-4-20.61-5.5-7.19-1.55-14.59-2.83-22-3.78-4.1-.53-9.72-1.25-17.17-1.62a74.45,74.45,0,0,0-10.09,0,49.66,49.66,0,0,1-7.7,0c-1.91-.12-4.49.23-9.63.93-1.58.21-2.75.44-3.5,1.36a3.33,3.33,0,0,0-.44,3.52c.3.5.95.59,2.06.71a7.2,7.2,0,0,1,3.51,1.05c5.15,3.52,9.18,14.34,9.35,14.8a1,1,0,0,1-.29,1.1c-1.65,1.41-5.4-1-7-2.63a10.28,10.28,0,0,1-1.36-1.65,4.9,4.9,0,0,0-1.45-1.52c-1.49-1-2.87-1.42-3.58-1a2.49,2.49,0,0,0-.9,1.87c-.28,2,1,3.81,1.7,4.77a53.28,53.28,0,0,1,4.26,6.46,24.74,24.74,0,0,0,2.48,3.73,110.28,110.28,0,0,0,8.56,10.27,129.14,129.14,0,0,0,14.05,12.85c1.53,1.24,5.12,3.9,12.27,9.2l.11.08c9.31,6.9,10.26,7.41,11.1,7.86l4.71,3.17c1.6,1.2,3.66,2.7,6.52,4.76l8.87,6.42c6.33,4.57,9.22,6.66,9.69,7.05a128.75,128.75,0,0,1,21.06,22.16c5.42,7.32,8.69,11.73,11.31,18.62,6.21,16.34,3.14,31.17,1.48,39.13a81.53,81.53,0,0,1-6.79,19.72A79.64,79.64,0,0,1,579,498a8.64,8.64,0,0,1-4.09,2.47,7.86,7.86,0,0,1-3.24.1c-.25,0-.48-.06-.71-.07Z" transform="translate(-25.16 -284.87)"/><path d="M571,499.46s-15.05-5.59-28.59-2.37-12.9,4.39-12,5.81c1.22,2,5,5,6.88,6.45,3.71,2.85,15.91,9.89,15.91,9.89s5.45,4,6.66,5.8c.78,1.18,1.72,5.38,1.72,5.38l-.64,15.69v7.74a8.32,8.32,0,0,0,1.29,2.58c1.81,1.37,4.3,0,4.3,0l4.51-3.65s5.38-5.8,6.88-8c1.66-2.36,5.59-10.1,5.59-10.1l4.09-8.46s-7.11-1.06-9.25-2.08c-2.3-1.1-5.51-4.86-6.66-7.13-1.26-2.5-1.82-8.35-1.72-11.14A62.83,62.83,0,0,1,571,499.46Z" transform="translate(-25.16 -284.87)" fill="#8a6d55"/><path d="M564.08,557.54a3.59,3.59,0,0,1-2.21-.71A7.73,7.73,0,0,1,560.4,554l0-.16v-7.74l.64-15.65a25,25,0,0,0-1.63-5.14c-1.16-1.75-6.49-5.64-6.55-5.68-.45-.26-12.22-7.06-15.92-9.9s-6.08-5.08-7-6.58a1.89,1.89,0,0,1-.36-1.77c.51-1.21,2.81-2.43,12.71-4.78,13.54-3.23,28.74,2.32,28.89,2.38l.4.15-.09.42a63.88,63.88,0,0,0-1.06,6.36c-.1,2.91.5,8.59,1.66,10.9s4.29,5.89,6.44,6.91,9,2,9.1,2l.68.1-4.39,9.07c-.16.32-4,7.8-5.63,10.17-1.5,2.16-6.7,7.77-6.92,8l-4.57,3.7A5.85,5.85,0,0,1,564.08,557.54Zm-2.7-3.77a7.31,7.31,0,0,0,1.09,2.26c1.53,1.16,3.73,0,3.76,0l4.44-3.6s5.32-5.75,6.78-7.85c1.62-2.32,5.52-10,5.56-10l3.79-7.84c-1.85-.29-6.91-1.15-8.72-2-2.35-1.12-5.64-4.87-6.9-7.36-1.35-2.67-1.86-8.73-1.77-11.38a57.29,57.29,0,0,1,1-6.11c-2.48-.84-15.88-5.06-27.9-2.2-2.82.67-11.39,2.71-12,4.2-.09.2,0,.43.28.86.59,1,2.24,2.84,6.76,6.31,3.65,2.8,15.74,9.78,15.86,9.85s5.58,4.07,6.83,6c.8,1.22,1.69,5.1,1.79,5.54l0,.06v.07l-.64,15.69Z" transform="translate(-25.16 -284.87)"/><path d="M575.83,522.68s-8.41,9.46-11.66,12.13,9.08-5.16,12.52-11.37Z" transform="translate(-25.16 -284.87)" fill="#1d1d1b"/><path d="M578.8,524.59a64.45,64.45,0,0,1-15.17,17.58s10.87-7,16.22-17.29Z" transform="translate(-25.16 -284.87)" fill="#1d1d1b"/><path d="M581.18,525.26a99.54,99.54,0,0,1-16,23.89s11.37-9.94,17.3-23.61Z" transform="translate(-25.16 -284.87)" fill="#1d1d1b"/><path d="M583.86,525.74s-5.06,18.06-18.73,28.18c0,0,9.8-2.86,20.12-27.8Z" transform="translate(-25.16 -284.87)" fill="#1d1d1b"/><path d="M573.06,519.62a95.34,95.34,0,0,1-9.43,8s3.89-.1,10.15-7Z" transform="translate(-25.16 -284.87)" fill="#1d1d1b"/><path d="M571.06,515.13s-3,1.72-8.7,5.92l9.17-4.2Z" transform="translate(-25.16 -284.87)" fill="#1d1d1b"/><path d="M570.39,512.26a46.28,46.28,0,0,0-12.71,4.59l12.71-3.44Z" transform="translate(-25.16 -284.87)" fill="#1d1d1b"/><path d="M570.16,510.83s-11.34-.58-18.12,2.2a40.73,40.73,0,0,1,17.87-4.11Z" transform="translate(-25.16 -284.87)" fill="#1d1d1b"/><path d="M569.62,505.67a72.81,72.81,0,0,0-24.08,3.25s13.76-3.41,24.08-1.66Z" transform="translate(-25.16 -284.87)" fill="#1d1d1b"/><path d="M570.16,503.8s-10.19-2.53-28.44,0c0,0,17.68-.43,27.9,1.1Z" transform="translate(-25.16 -284.87)" fill="#1d1d1b"/><path d="M570.67,501.08s-18.54-5.35-34.3,0c0,0,18.06-3.15,34,.77Z" transform="translate(-25.16 -284.87)" fill="#1d1d1b"/><path d="M640.57,413.1a2.09,2.09,0,0,0,.92.55h0s1-1.51.65-2a1.08,1.08,0,0,0-1.48.09A1.14,1.14,0,0,0,640.57,413.1Z" transform="translate(-25.16 -284.87)" fill="#4a2e22"/><path d="M645.73,413.64a2.11,2.11,0,0,0,.93.55h0s1-1.51.65-2a1.08,1.08,0,0,0-1.49.1A1.14,1.14,0,0,0,645.73,413.64Z" transform="translate(-25.16 -284.87)" fill="#4a2e22"/><path d="M644.8,418.39a2.06,2.06,0,0,0,.93.56h0s1-1.51.65-2a1.09,1.09,0,0,0-1.49.09A1.15,1.15,0,0,0,644.8,418.39Z" transform="translate(-25.16 -284.87)" fill="#4a2e22"/><path d="M591.21,499.29a2.06,2.06,0,0,0,.93.56h0s1-1.51.65-2a1.09,1.09,0,0,0-1.49.09A1.15,1.15,0,0,0,591.21,499.29Z" transform="translate(-25.16 -284.87)" fill="#4a2e22"/><path d="M585.74,500.44a2.11,2.11,0,0,0,.93.55h0s1-1.51.65-2a1.08,1.08,0,0,0-1.48.1A1.14,1.14,0,0,0,585.74,500.44Z" transform="translate(-25.16 -284.87)" fill="#4a2e22"/><path d="M599.56,476.34a2.06,2.06,0,0,0,.93.56h0s1-1.51.65-2a1.09,1.09,0,0,0-1.49.09A1.14,1.14,0,0,0,599.56,476.34Z" transform="translate(-25.16 -284.87)" fill="#4a2e22"/><path d="M598.63,484.73a2.11,2.11,0,0,0,.93.55h0s1-1.51.65-2a1.09,1.09,0,0,0-1.49.1A1.15,1.15,0,0,0,598.63,484.73Z" transform="translate(-25.16 -284.87)" fill="#4a2e22"/><path d="M585.44,505.49a2.06,2.06,0,0,0,.93.56h0s1-1.51.65-2a1.09,1.09,0,0,0-1.49.09A1.14,1.14,0,0,0,585.44,505.49Z" transform="translate(-25.16 -284.87)" fill="#4a2e22"/><path d="M589.09,506.64a2.06,2.06,0,0,0,.93.56h0s1-1.52.65-2.05a1.08,1.08,0,0,0-1.48.1A1.14,1.14,0,0,0,589.09,506.64Z" transform="translate(-25.16 -284.87)" fill="#4a2e22"/><path d="M583.58,513.62a2.16,2.16,0,0,0,.93.55h0s1-1.51.65-2a1.08,1.08,0,0,0-1.48.09A1.15,1.15,0,0,0,583.58,513.62Z" transform="translate(-25.16 -284.87)" fill="#4a2e22"/><path d="M580.77,509a2.09,2.09,0,0,0,.92.55h0s1-1.51.65-2a1.07,1.07,0,0,0-1.48.1A1.12,1.12,0,0,0,580.77,509Z" transform="translate(-25.16 -284.87)" fill="#4a2e22"/><path d="M594,491.55a2.06,2.06,0,0,0,.93.56h0s1-1.51.65-2a1.09,1.09,0,0,0-1.49.09A1.15,1.15,0,0,0,594,491.55Z" transform="translate(-25.16 -284.87)" fill="#4a2e22"/><path d="M594.39,483a2.06,2.06,0,0,0,.93.56h0s1-1.51.65-2a1.09,1.09,0,0,0-1.49.09A1.14,1.14,0,0,0,594.39,483Z" transform="translate(-25.16 -284.87)" fill="#4a2e22"/><path d="M583.15,499.29a2,2,0,0,0,.92.56h0s1-1.51.65-2a1.08,1.08,0,0,0-1.48.09A1.12,1.12,0,0,0,583.15,499.29Z" transform="translate(-25.16 -284.87)" fill="#4a2e22"/><path d="M582.66,494.31a2.06,2.06,0,0,0,.93.56h0s1-1.52.65-2a1.08,1.08,0,0,0-1.49.09A1.12,1.12,0,0,0,582.66,494.31Z" transform="translate(-25.16 -284.87)" fill="#4a2e22"/><path d="M578.19,503.27a2.27,2.27,0,0,0,.92.56h0s1-1.52.65-2.05a1.08,1.08,0,0,0-1.48.1A1.12,1.12,0,0,0,578.19,503.27Z" transform="translate(-25.16 -284.87)" fill="#4a2e22"/><path d="M581.3,519.06a2.06,2.06,0,0,0,.93.56h0s1-1.51.65-2a1.09,1.09,0,0,0-1.49.09A1.15,1.15,0,0,0,581.3,519.06Z" transform="translate(-25.16 -284.87)" fill="#4a2e22"/><path d="M576,512.85a2.06,2.06,0,0,0,.93.56h0s1-1.52.65-2a1.09,1.09,0,0,0-1.49.09A1.15,1.15,0,0,0,576,512.85Z" transform="translate(-25.16 -284.87)" fill="#4a2e22"/><path d="M587.86,494.31a2.06,2.06,0,0,0,.93.56h0s1-1.52.65-2a1.08,1.08,0,0,0-1.49.09A1.15,1.15,0,0,0,587.86,494.31Z" transform="translate(-25.16 -284.87)" fill="#4a2e22"/><path d="M571.93,507.85a2.11,2.11,0,0,0,.93.56h0s1-1.51.65-2a1.08,1.08,0,0,0-1.48.09A1.14,1.14,0,0,0,571.93,507.85Z" transform="translate(-25.16 -284.87)" fill="#4a2e22"/><path d="M651.55,415.93a2.06,2.06,0,0,0,.93.56h0s1-1.52.65-2.05a1.08,1.08,0,0,0-1.48.1A1.14,1.14,0,0,0,651.55,415.93Z" transform="translate(-25.16 -284.87)" fill="#4a2e22"/><path d="M637.76,401.87a2.06,2.06,0,0,0,.93.56h0s1-1.52.65-2a1.07,1.07,0,0,0-1.48.09A1.14,1.14,0,0,0,637.76,401.87Z" transform="translate(-25.16 -284.87)" fill="#4a2e22"/><path d="M635.37,394.84a2.06,2.06,0,0,0,.93.56h0s1-1.52.65-2a1.07,1.07,0,0,0-1.48.09A1.14,1.14,0,0,0,635.37,394.84Z" transform="translate(-25.16 -284.87)" fill="#4a2e22"/><path d="M648.74,422.67a2.11,2.11,0,0,0,.93.56h0s1-1.52.65-2.05a1.08,1.08,0,0,0-1.48.1A1.14,1.14,0,0,0,648.74,422.67Z" transform="translate(-25.16 -284.87)" fill="#4a2e22"/><path d="M644.8,407.8a2.06,2.06,0,0,0,.93.56h0s1-1.51.65-2a1.09,1.09,0,0,0-1.49.09A1.15,1.15,0,0,0,644.8,407.8Z" transform="translate(-25.16 -284.87)" fill="#4a2e22"/><path d="M636.3,384.25a2.06,2.06,0,0,0,.93.56h0s1-1.51.65-2a1.09,1.09,0,0,0-1.49.09A1.15,1.15,0,0,0,636.3,384.25Z" transform="translate(-25.16 -284.87)" fill="#4a2e22"/><path d="M652.21,402.48a2.06,2.06,0,0,0,.93.56h0s1-1.51.65-2a1.09,1.09,0,0,0-1.49.09A1.14,1.14,0,0,0,652.21,402.48Z" transform="translate(-25.16 -284.87)" fill="#4a2e22"/><path d="M643.82,395.27a2.06,2.06,0,0,0,.93.56h0s1-1.51.65-2a1.09,1.09,0,0,0-1.49.09A1.15,1.15,0,0,0,643.82,395.27Z" transform="translate(-25.16 -284.87)" fill="#4a2e22"/><path d="M643.89,373.82a2.06,2.06,0,0,0,.93.56h0s1-1.51.65-2a1.09,1.09,0,0,0-1.49.09A1.14,1.14,0,0,0,643.89,373.82Z" transform="translate(-25.16 -284.87)" fill="#4a2e22"/><path d="M643.89,378.69a2.06,2.06,0,0,0,.93.56h0s1-1.51.65-2a1.09,1.09,0,0,0-1.49.09A1.14,1.14,0,0,0,643.89,378.69Z" transform="translate(-25.16 -284.87)" fill="#4a2e22"/><path d="M627.21,373.67a2.11,2.11,0,0,0,.93.55h0s1-1.51.65-2a1.08,1.08,0,0,0-1.48.09A1.15,1.15,0,0,0,627.21,373.67Z" transform="translate(-25.16 -284.87)" fill="#4a2e22"/><path d="M629.1,365.13a2.06,2.06,0,0,0,.93.56h0s1-1.51.65-2a1.09,1.09,0,0,0-1.49.09A1.15,1.15,0,0,0,629.1,365.13Z" transform="translate(-25.16 -284.87)" fill="#4a2e22"/><path d="M636.91,364.26a2.06,2.06,0,0,0,.93.56h0s1-1.51.65-2a1.09,1.09,0,0,0-1.49.09A1.15,1.15,0,0,0,636.91,364.26Z" transform="translate(-25.16 -284.87)" fill="#4a2e22"/><path d="M640.33,360.84a2.11,2.11,0,0,0,.93.56h0s1-1.52.65-2a1.08,1.08,0,0,0-1.48.1A1.14,1.14,0,0,0,640.33,360.84Z" transform="translate(-25.16 -284.87)" fill="#4a2e22"/><path d="M617.51,360.68a2.06,2.06,0,0,0,.93.56h0s1-1.51.65-2a1.08,1.08,0,0,0-1.48.09A1.14,1.14,0,0,0,617.51,360.68Z" transform="translate(-25.16 -284.87)" fill="#4a2e22"/><path d="M599,470a1.08,1.08,0,0,0-1.48.09,1.14,1.14,0,0,0-.1,1.39" transform="translate(-25.16 -284.87)" fill="#4a2e22"/><path d="M599,473.12a1.08,1.08,0,0,0-1.48.1,1.14,1.14,0,0,0-.1,1.39" transform="translate(-25.16 -284.87)" fill="#4a2e22"/><path d="M595.83,473.12a1.08,1.08,0,0,0-1.48.1,1.12,1.12,0,0,0-.09,1.39" transform="translate(-25.16 -284.87)" fill="#4a2e22"/><path d="M593.72,477.36a1.09,1.09,0,0,0-1.49.09,1.14,1.14,0,0,0-.09,1.39" transform="translate(-25.16 -284.87)" fill="#4a2e22"/><path d="M591.6,485.83a1.09,1.09,0,0,0-1.49.09,1.17,1.17,0,0,0-.09,1.4" transform="translate(-25.16 -284.87)" fill="#4a2e22"/><path d="M587.36,490.07a1.08,1.08,0,0,0-1.48.09,1.12,1.12,0,0,0-.09,1.39" transform="translate(-25.16 -284.87)" fill="#4a2e22"/><path d="M620.94,357.26a2,2,0,0,0,.92.56h0s1-1.52.65-2.05a1.08,1.08,0,0,0-1.48.1A1.12,1.12,0,0,0,620.94,357.26Z" transform="translate(-25.16 -284.87)" fill="#4a2e22"/><path d="M628.92,349.9a2.11,2.11,0,0,0,.93.56h0s1-1.51.65-2a1.08,1.08,0,0,0-1.48.09A1.14,1.14,0,0,0,628.92,349.9Z" transform="translate(-25.16 -284.87)" fill="#4a2e22"/><path d="M632.35,346.48a2,2,0,0,0,.92.56h0s1-1.52.65-2a1.07,1.07,0,0,0-1.48.09A1.12,1.12,0,0,0,632.35,346.48Z" transform="translate(-25.16 -284.87)" fill="#4a2e22"/><path d="M632.35,351.35a2.09,2.09,0,0,0,.92.55h0s1-1.51.65-2a1.08,1.08,0,0,0-1.48.1A1.12,1.12,0,0,0,632.35,351.35Z" transform="translate(-25.16 -284.87)" fill="#4a2e22"/><path d="M613.16,353.48a2.06,2.06,0,0,0,.93.56h0s1-1.51.65-2a1.08,1.08,0,0,0-1.48.09A1.14,1.14,0,0,0,613.16,353.48Z" transform="translate(-25.16 -284.87)" fill="#4a2e22"/><path d="M616.59,350.06a2,2,0,0,0,.92.56h0s1-1.52.65-2a1.07,1.07,0,0,0-1.48.09A1.12,1.12,0,0,0,616.59,350.06Z" transform="translate(-25.16 -284.87)" fill="#4a2e22"/><path d="M606.16,354.77a2.06,2.06,0,0,0,.93.56h0s1-1.51.65-2a1.09,1.09,0,0,0-1.49.09A1.15,1.15,0,0,0,606.16,354.77Z" transform="translate(-25.16 -284.87)" fill="#4a2e22"/><path d="M591,354.77a2.06,2.06,0,0,0,.93.56h0s1-1.51.65-2a1.09,1.09,0,0,0-1.49.09A1.14,1.14,0,0,0,591,354.77Z" transform="translate(-25.16 -284.87)" fill="#4a2e22"/><path d="M598.1,347.85a2.06,2.06,0,0,0,.93.56h0s1-1.52.65-2.05a1.09,1.09,0,0,0-1.49.1A1.12,1.12,0,0,0,598.1,347.85Z" transform="translate(-25.16 -284.87)" fill="#4a2e22"/><path d="M601.52,349.29a2.06,2.06,0,0,0,.93.56h0s1-1.51.65-2a1.09,1.09,0,0,0-1.49.09A1.15,1.15,0,0,0,601.52,349.29Z" transform="translate(-25.16 -284.87)" fill="#4a2e22"/><path d="M587.13,349.9a2.06,2.06,0,0,0,.93.56h0s1-1.51.65-2a1.09,1.09,0,0,0-1.49.09A1.14,1.14,0,0,0,587.13,349.9Z" transform="translate(-25.16 -284.87)" fill="#4a2e22"/><path d="M583,339.41a2.11,2.11,0,0,0,.93.55h0s1-1.51.65-2a1.08,1.08,0,0,0-1.49.1A1.15,1.15,0,0,0,583,339.41Z" transform="translate(-25.16 -284.87)" fill="#4a2e22"/><path d="M596.58,340.85a2.06,2.06,0,0,0,.93.56h0s1-1.51.65-2a1.09,1.09,0,0,0-1.49.09A1.15,1.15,0,0,0,596.58,340.85Z" transform="translate(-25.16 -284.87)" fill="#4a2e22"/><path d="M568.5,336a2.06,2.06,0,0,0,.93.56h0s1-1.51.65-2a1.09,1.09,0,0,0-1.49.09A1.15,1.15,0,0,0,568.5,336Z" transform="translate(-25.16 -284.87)" fill="#4a2e22"/><path d="M588.84,344.29a2.11,2.11,0,0,0,.93.55h0s1-1.51.65-2a1.08,1.08,0,0,0-1.48.09A1.15,1.15,0,0,0,588.84,344.29Z" transform="translate(-25.16 -284.87)" fill="#4a2e22"/><path d="M603.65,338.26a2.06,2.06,0,0,0,.93.56h0s1-1.51.65-2a1.08,1.08,0,0,0-1.48.09A1.14,1.14,0,0,0,603.65,338.26Z" transform="translate(-25.16 -284.87)" fill="#4a2e22"/><path d="M607.08,334.84a2.27,2.27,0,0,0,.92.56h0s1-1.52.65-2a1.08,1.08,0,0,0-1.48.1A1.12,1.12,0,0,0,607.08,334.84Z" transform="translate(-25.16 -284.87)" fill="#4a2e22"/><path d="M607.08,339.71a2.09,2.09,0,0,0,.92.55h0s1-1.51.65-2a1.08,1.08,0,0,0-1.48.09A1.14,1.14,0,0,0,607.08,339.71Z" transform="translate(-25.16 -284.87)" fill="#4a2e22"/><path d="M618.91,334.41a2.08,2.08,0,0,0,.14,1.08h0s1.83-.15,2-.78c.11-.37-.35-1-1-1.1A1.15,1.15,0,0,0,618.91,334.41Z" transform="translate(-25.16 -284.87)" fill="#4a2e22"/><path d="M623.72,334.94a2,2,0,0,0,.15,1.07h0s1.82-.15,2-.77c.11-.38-.35-1.05-1-1.1A1.13,1.13,0,0,0,623.72,334.94Z" transform="translate(-25.16 -284.87)" fill="#4a2e22"/><path d="M615.7,341.63a2.13,2.13,0,0,0,.15,1.07h0s1.82-.14,2-.77c.1-.37-.35-1-1-1.1A1.16,1.16,0,0,0,615.7,341.63Z" transform="translate(-25.16 -284.87)" fill="#4a2e22"/><path d="M611.35,325.65a2.13,2.13,0,0,0,.15,1.07h0s1.82-.15,2-.77c.1-.38-.35-1.05-1-1.1A1.14,1.14,0,0,0,611.35,325.65Z" transform="translate(-25.16 -284.87)" fill="#4a2e22"/><path d="M616.16,326.17a2.13,2.13,0,0,0,.15,1.07h0s1.82-.15,2-.77a1.08,1.08,0,0,0-1-1.1A1.14,1.14,0,0,0,616.16,326.17Z" transform="translate(-25.16 -284.87)" fill="#4a2e22"/><path d="M612.37,329.22a2,2,0,0,0,.15,1.07h0s1.82-.15,2-.77c.11-.38-.35-1-1-1.1A1.13,1.13,0,0,0,612.37,329.22Z" transform="translate(-25.16 -284.87)" fill="#4a2e22"/><path d="M595.36,330.16a2,2,0,0,0,.15,1.07h0s1.82-.15,2-.77c.11-.38-.35-1-1-1.1A1.13,1.13,0,0,0,595.36,330.16Z" transform="translate(-25.16 -284.87)" fill="#4a2e22"/><path d="M600.17,330.68a2.13,2.13,0,0,0,.15,1.07h0s1.82-.14,2-.77c.1-.38-.35-1-1-1.1A1.14,1.14,0,0,0,600.17,330.68Z" transform="translate(-25.16 -284.87)" fill="#4a2e22"/><path d="M591.07,320.18a2,2,0,0,0,.15,1.07h0s1.82-.15,2-.77c.11-.38-.35-1.05-1-1.1A1.13,1.13,0,0,0,591.07,320.18Z" transform="translate(-25.16 -284.87)" fill="#4a2e22"/><path d="M580.73,314.29a2,2,0,0,0,.15,1.07h0s1.82-.15,2-.77c.11-.38-.35-1-1-1.1A1.13,1.13,0,0,0,580.73,314.29Z" transform="translate(-25.16 -284.87)" fill="#4a2e22"/><path d="M597.51,319.88a2.06,2.06,0,0,0,.93.56h0s1-1.51.65-2a1.09,1.09,0,0,0-1.49.09A1.14,1.14,0,0,0,597.51,319.88Z" transform="translate(-25.16 -284.87)" fill="#4a2e22"/><path d="M589.21,311.78a2.13,2.13,0,0,0,.15,1.07h0s1.82-.15,2-.77c.11-.38-.35-1.05-1-1.1A1.14,1.14,0,0,0,589.21,311.78Z" transform="translate(-25.16 -284.87)" fill="#4a2e22"/><path d="M573.52,313.15a2.1,2.1,0,0,0,.14,1.08h0s1.83-.15,2-.78c.11-.37-.35-1-1-1.1A1.15,1.15,0,0,0,573.52,313.15Z" transform="translate(-25.16 -284.87)" fill="#4a2e22"/><path d="M585.37,327.35a2.09,2.09,0,0,0,.92.55h0s1-1.51.65-2a1.08,1.08,0,0,0-1.48.09A1.14,1.14,0,0,0,585.37,327.35Z" transform="translate(-25.16 -284.87)" fill="#4a2e22"/><path d="M571.73,328.48a2.18,2.18,0,0,0,.15,1.08h0s1.82-.15,2-.78c.11-.37-.35-1-1-1.1A1.16,1.16,0,0,0,571.73,328.48Z" transform="translate(-25.16 -284.87)" fill="#4a2e22"/><path d="M586.8,335.79a2.06,2.06,0,0,0,.14,1.07h0s1.83-.15,2-.77c.11-.38-.35-1-1-1.1A1.13,1.13,0,0,0,586.8,335.79Z" transform="translate(-25.16 -284.87)" fill="#4a2e22"/><path d="M571.31,318.94a2.06,2.06,0,0,0,.93.55h0s1-1.51.64-2a1.08,1.08,0,0,0-1.48.09A1.14,1.14,0,0,0,571.31,318.94Z" transform="translate(-25.16 -284.87)" fill="#4a2e22"/><path d="M560.44,311.37a2.13,2.13,0,0,0,.15,1.07h0s1.82-.15,2-.77a1.08,1.08,0,0,0-1-1.1A1.14,1.14,0,0,0,560.44,311.37Z" transform="translate(-25.16 -284.87)" fill="#4a2e22"/><path d="M561.46,314.94a2,2,0,0,0,.15,1.07h0s1.82-.14,2-.77c.1-.38-.36-1-1-1.1A1.13,1.13,0,0,0,561.46,314.94Z" transform="translate(-25.16 -284.87)" fill="#4a2e22"/><path d="M564.49,314.21a2.21,2.21,0,0,0,.15,1.08h0s1.82-.15,2-.78c.1-.37-.35-1-1-1.1A1.16,1.16,0,0,0,564.49,314.21Z" transform="translate(-25.16 -284.87)" fill="#4a2e22"/><path d="M552.51,307.59a2,2,0,0,0,.15,1.07h0s1.82-.15,2-.78c.1-.37-.36-1-1-1.09A1.13,1.13,0,0,0,552.51,307.59Z" transform="translate(-25.16 -284.87)" fill="#4a2e22"/><path d="M553.53,311.16a2.06,2.06,0,0,0,.14,1.07h0s1.83-.15,2-.77c.11-.38-.35-1-1-1.1A1.13,1.13,0,0,0,553.53,311.16Z" transform="translate(-25.16 -284.87)" fill="#4a2e22"/><path d="M554.7,296.88a2,2,0,0,0,.15,1.07h0s1.82-.15,2-.77c.1-.38-.36-1.05-1-1.1A1.13,1.13,0,0,0,554.7,296.88Z" transform="translate(-25.16 -284.87)" fill="#4a2e22"/><path d="M558.75,299.72a2.15,2.15,0,0,0,.15,1.08h0s1.82-.15,2-.78c.1-.37-.35-1-1-1.09A1.13,1.13,0,0,0,558.75,299.72Z" transform="translate(-25.16 -284.87)" fill="#4a2e22"/><path d="M546.27,296a2,2,0,0,0,.15,1.07h0s1.82-.15,2-.77c.11-.38-.35-1.05-1-1.1A1.13,1.13,0,0,0,546.27,296Z" transform="translate(-25.16 -284.87)" fill="#4a2e22"/><path d="M544.24,301a2.18,2.18,0,0,0,.15,1.08h0s1.82-.15,2-.78c.11-.37-.35-1-1-1.1A1.16,1.16,0,0,0,544.24,301Z" transform="translate(-25.16 -284.87)" fill="#4a2e22"/><path d="M548.29,303.8a2.13,2.13,0,0,0,.15,1.07h0s1.82-.15,2-.77c.11-.38-.35-1-1-1.1A1.14,1.14,0,0,0,548.29,303.8Z" transform="translate(-25.16 -284.87)" fill="#4a2e22"/><path d="M538.79,293.33a2.13,2.13,0,0,0,.15,1.07h0s1.82-.15,2-.77a1.08,1.08,0,0,0-1-1.1A1.14,1.14,0,0,0,538.79,293.33Z" transform="translate(-25.16 -284.87)" fill="#4a2e22"/><path d="M536.69,299.84a2,2,0,0,0,.15,1.07h0s1.82-.15,2-.78c.11-.37-.35-1-1-1.09A1.13,1.13,0,0,0,536.69,299.84Z" transform="translate(-25.16 -284.87)" fill="#4a2e22"/><path d="M529.61,291.54a2.13,2.13,0,0,0,.15,1.07h0s1.82-.14,2-.77c.11-.37-.35-1-1-1.1A1.15,1.15,0,0,0,529.61,291.54Z" transform="translate(-25.16 -284.87)" fill="#4a2e22"/><path d="M530.63,295.12a2.13,2.13,0,0,0,.15,1.07h0s1.82-.15,2-.77c.1-.38-.35-1.05-1-1.1A1.14,1.14,0,0,0,530.63,295.12Z" transform="translate(-25.16 -284.87)" fill="#4a2e22"/><path d="M517.32,290.61a2.13,2.13,0,0,0,.15,1.07h0s1.82-.15,2-.77c.1-.38-.35-1.05-1-1.1A1.14,1.14,0,0,0,517.32,290.61Z" transform="translate(-25.16 -284.87)" fill="#4a2e22"/><path d="M511.19,294.18a2.06,2.06,0,0,0,.14,1.07h0s1.82-.15,2-.77c.11-.38-.35-1.05-1-1.1A1.12,1.12,0,0,0,511.19,294.18Z" transform="translate(-25.16 -284.87)" fill="#4a2e22"/><path d="M504.9,290.19a2.13,2.13,0,0,0,.15,1.07h0s1.82-.15,2-.77c.11-.38-.35-1.05-1-1.1A1.14,1.14,0,0,0,504.9,290.19Z" transform="translate(-25.16 -284.87)" fill="#4a2e22"/><path d="M541,306.66a2.1,2.1,0,0,0,.14,1.08h0s1.83-.15,2-.78c.11-.37-.35-1-1-1.1A1.14,1.14,0,0,0,541,306.66Z" transform="translate(-25.16 -284.87)" fill="#4a2e22"/><path d="M578.11,306.62a2.18,2.18,0,0,0,.15,1.08h0s1.82-.15,2-.78c.1-.37-.35-1-1-1.1A1.16,1.16,0,0,0,578.11,306.62Z" transform="translate(-25.16 -284.87)" fill="#4a2e22"/><path d="M582.92,307.15a2.13,2.13,0,0,0,.15,1.07h0s1.82-.15,2-.77a1.08,1.08,0,0,0-1-1.1A1.14,1.14,0,0,0,582.92,307.15Z" transform="translate(-25.16 -284.87)" fill="#4a2e22"/><path d="M566,301.8a2.21,2.21,0,0,0,.15,1.08h0s1.82-.15,2-.78c.11-.37-.35-1-1-1.1A1.16,1.16,0,0,0,566,301.8Z" transform="translate(-25.16 -284.87)" fill="#4a2e22"/><path d="M570.81,302.33a2.06,2.06,0,0,0,.14,1.07h0s1.83-.15,2-.77c.11-.38-.35-1.05-1-1.1A1.13,1.13,0,0,0,570.81,302.33Z" transform="translate(-25.16 -284.87)" fill="#4a2e22"/><path d="M555.63,304.22a2,2,0,0,0,.15,1.08h0s1.82-.15,2-.78c.1-.37-.36-1-1-1.09A1.13,1.13,0,0,0,555.63,304.22Z" transform="translate(-25.16 -284.87)" fill="#4a2e22"/><path d="M580.6,330.78a2.06,2.06,0,0,0,.14,1.07h0s1.83-.15,2-.77c.11-.38-.35-1.05-1-1.1A1.12,1.12,0,0,0,580.6,330.78Z" transform="translate(-25.16 -284.87)" fill="#4a2e22"/><path d="M572.42,342.64a2.13,2.13,0,0,0,.15,1.07h0s1.82-.15,2-.77c.1-.38-.35-1-1-1.1A1.14,1.14,0,0,0,572.42,342.64Z" transform="translate(-25.16 -284.87)" fill="#4a2e22"/><path d="M577.23,343.16a2.15,2.15,0,0,0,.15,1.08h0s1.82-.15,2-.78c.11-.37-.35-1-1-1.1A1.16,1.16,0,0,0,577.23,343.16Z" transform="translate(-25.16 -284.87)" fill="#4a2e22"/><path d="M653.55,379.76s9.9,30.14-3.08,59.88C650.47,439.64,658.52,409.67,653.55,379.76Z" transform="translate(-25.16 -284.87)" fill="#fdfbe6"/><circle cx="625.72" cy="93.49" r="1.4" fill="#fdfbe6"/><path d="M563.62,377s28.5,22,35.55,50.16S598.08,380.6,563.62,377Z" transform="translate(-25.16 -284.87)" fill="#fdfbe6"/><circle cx="535.12" cy="90.29" r="1.24" fill="#fdfbe6"/></svg>